<svg width="72" height="72" viewBox="0 0 72 72" fill="none" xmlns="http://www.w3.org/2000/svg">
<path d="M7.58203 10.583H32.707V35.708H7.58203V10.583ZM13.1654 16.1663V30.1247H27.1237V16.1663H13.1654ZM50.8529 16.1663C49.0019 16.1663 47.2267 16.9016 45.9179 18.2105C44.609 19.5193 43.8737 21.2945 43.8737 23.1455C43.8737 24.9965 44.609 26.7717 45.9179 28.0805C47.2267 29.3894 49.0019 30.1247 50.8529 30.1247C52.7039 30.1247 54.479 29.3894 55.7879 28.0805C57.0967 26.7717 57.832 24.9965 57.832 23.1455C57.832 21.2945 57.0967 19.5193 55.7879 18.2105C54.479 16.9016 52.7039 16.1663 50.8529 16.1663ZM38.2904 23.1455C38.2904 21.4958 38.6153 19.8622 39.2466 18.338C39.878 16.8139 40.8033 15.429 41.9698 14.2625C43.1364 13.0959 44.5213 12.1706 46.0454 11.5393C47.5696 10.9079 49.2031 10.583 50.8529 10.583C52.5026 10.583 54.1362 10.9079 55.6603 11.5393C57.1845 12.1706 58.5694 13.0959 59.7359 14.2625C60.9024 15.429 61.8278 16.8139 62.4591 18.338C63.0904 19.8622 63.4154 21.4958 63.4154 23.1455C63.4154 26.4773 62.0918 29.6726 59.7359 32.0285C57.38 34.3845 54.1846 35.708 50.8529 35.708C47.5211 35.708 44.3258 34.3845 41.9698 32.0285C39.6139 29.6726 38.2904 26.4773 38.2904 23.1455ZM7.58203 41.2913H32.707V66.4163H7.58203V41.2913ZM13.1654 46.8747V60.833H27.1237V46.8747H13.1654ZM38.2904 41.2913H63.4154V66.4163H38.2904V41.2913ZM43.8737 46.8747V60.833H57.832V46.8747H43.8737Z" fill="#17A0B5"/>
</svg>
