<svg width="90" height="75" viewBox="0 0 90 75" fill="none" xmlns="http://www.w3.org/2000/svg">
<rect x="13.9777" y="34.044" width="67.483" height="9.84002" rx="4.92001" transform="rotate(-22.4203 13.9777 34.044)" stroke="#17A0B5" stroke-width="2"/>
<path d="M10.6367 38.6481C10.6367 32.8218 15.3599 28.0986 21.1862 28.0986C27.0125 28.0986 31.7357 32.8218 31.7357 38.6481V53.813H10.6367V38.6481Z" fill="#17A0B5"/>
<path d="M8 55.4618L10.6374 53.8135H31.7363L34.044 55.4618V67.0003H8V55.4618Z" fill="#17A0B5"/>
<circle cx="21.024" cy="37.4937" r="5.1099" fill="white"/>
<path d="M24.4805 30.736L30.4145 28.0986L41.953 33.0437L35.6893 35.6811L24.4805 30.736Z" fill="#17A0B5"/>
<path d="M60.582 15.2419L66.5161 12.6045L78.0546 17.5496L71.7908 20.1869L60.582 15.2419Z" fill="#17A0B5"/>
<path d="M43.1094 22.8239L49.0435 20.1865L60.5819 25.1316L54.3182 27.769L43.1094 22.8239Z" fill="#17A0B5"/>
</svg>
