<svg width="20" height="20" viewBox="0 0 20 20" fill="none" xmlns="http://www.w3.org/2000/svg">
<path d="M15.625 20C16.7853 20 17.8981 19.5391 18.7186 18.7186C19.5391 17.8981 20 16.7853 20 15.625C20 14.4647 19.5391 13.3519 18.7186 12.5314C17.8981 11.7109 16.7853 11.25 15.625 11.25C14.4647 11.25 13.3519 11.7109 12.5314 12.5314C11.7109 13.3519 11.25 14.4647 11.25 15.625C11.25 16.7853 11.7109 17.8981 12.5314 18.7186C13.3519 19.5391 14.4647 20 15.625 20ZM16.0675 12.6825L17.9425 14.5575C18.0599 14.6749 18.1258 14.834 18.1258 15C18.1258 15.166 18.0599 15.3251 17.9425 15.4425C17.8251 15.5599 17.666 15.6258 17.5 15.6258C17.334 15.6258 17.1749 15.5599 17.0575 15.4425L16.25 14.6337V18.125C16.25 18.2908 16.1842 18.4497 16.0669 18.5669C15.9497 18.6842 15.7908 18.75 15.625 18.75C15.4592 18.75 15.3003 18.6842 15.1831 18.5669C15.0658 18.4497 15 18.2908 15 18.125V14.6337L14.1925 15.4425C14.0751 15.5599 13.916 15.6258 13.75 15.6258C13.584 15.6258 13.4249 15.5599 13.3075 15.4425C13.1901 15.3251 13.1242 15.166 13.1242 15C13.1242 14.834 13.1901 14.6749 13.3075 14.5575L15.1825 12.6825C15.2406 12.6243 15.3095 12.5781 15.3855 12.5466C15.4614 12.5151 15.5428 12.4989 15.625 12.4989C15.7072 12.4989 15.7886 12.5151 15.8645 12.5466C15.9405 12.5781 16.0094 12.6243 16.0675 12.6825Z" fill="black"/>
<path d="M2.5 1.25C2.5 0.918479 2.6317 0.600537 2.86612 0.366117C3.10054 0.131696 3.41848 0 3.75 0L16.25 0C16.5815 0 16.8995 0.131696 17.1339 0.366117C17.3683 0.600537 17.5 0.918479 17.5 1.25V9.375C17.5 9.54076 17.4342 9.69973 17.3169 9.81694C17.1997 9.93415 17.0408 10 16.875 10C16.7092 10 16.5503 9.93415 16.4331 9.81694C16.3158 9.69973 16.25 9.54076 16.25 9.375V1.25H3.75V18.75H7.5V15.625C7.5 15.4592 7.56585 15.3003 7.68306 15.1831C7.80027 15.0658 7.95924 15 8.125 15H10V20H3.75C3.41848 20 3.10054 19.8683 2.86612 19.6339C2.6317 19.3995 2.5 19.0815 2.5 18.75V1.25Z" fill="black"/>
<path d="M5.625 2.5C5.45924 2.5 5.30027 2.56585 5.18306 2.68306C5.06585 2.80027 5 2.95924 5 3.125V4.375C5 4.54076 5.06585 4.69973 5.18306 4.81694C5.30027 4.93415 5.45924 5 5.625 5H6.875C7.04076 5 7.19973 4.93415 7.31694 4.81694C7.43415 4.69973 7.5 4.54076 7.5 4.375V3.125C7.5 2.95924 7.43415 2.80027 7.31694 2.68306C7.19973 2.56585 7.04076 2.5 6.875 2.5H5.625ZM9.375 2.5C9.20924 2.5 9.05027 2.56585 8.93306 2.68306C8.81585 2.80027 8.75 2.95924 8.75 3.125V4.375C8.75 4.54076 8.81585 4.69973 8.93306 4.81694C9.05027 4.93415 9.20924 5 9.375 5H10.625C10.7908 5 10.9497 4.93415 11.0669 4.81694C11.1842 4.69973 11.25 4.54076 11.25 4.375V3.125C11.25 2.95924 11.1842 2.80027 11.0669 2.68306C10.9497 2.56585 10.7908 2.5 10.625 2.5H9.375ZM13.125 2.5C12.9592 2.5 12.8003 2.56585 12.6831 2.68306C12.5658 2.80027 12.5 2.95924 12.5 3.125V4.375C12.5 4.54076 12.5658 4.69973 12.6831 4.81694C12.8003 4.93415 12.9592 5 13.125 5H14.375C14.5408 5 14.6997 4.93415 14.8169 4.81694C14.9342 4.69973 15 4.54076 15 4.375V3.125C15 2.95924 14.9342 2.80027 14.8169 2.68306C14.6997 2.56585 14.5408 2.5 14.375 2.5H13.125ZM5.625 6.25C5.45924 6.25 5.30027 6.31585 5.18306 6.43306C5.06585 6.55027 5 6.70924 5 6.875V8.125C5 8.29076 5.06585 8.44973 5.18306 8.56694C5.30027 8.68415 5.45924 8.75 5.625 8.75H6.875C7.04076 8.75 7.19973 8.68415 7.31694 8.56694C7.43415 8.44973 7.5 8.29076 7.5 8.125V6.875C7.5 6.70924 7.43415 6.55027 7.31694 6.43306C7.19973 6.31585 7.04076 6.25 6.875 6.25H5.625ZM9.375 6.25C9.20924 6.25 9.05027 6.31585 8.93306 6.43306C8.81585 6.55027 8.75 6.70924 8.75 6.875V8.125C8.75 8.29076 8.81585 8.44973 8.93306 8.56694C9.05027 8.68415 9.20924 8.75 9.375 8.75H10.625C10.7908 8.75 10.9497 8.68415 11.0669 8.56694C11.1842 8.44973 11.25 8.29076 11.25 8.125V6.875C11.25 6.70924 11.1842 6.55027 11.0669 6.43306C10.9497 6.31585 10.7908 6.25 10.625 6.25H9.375ZM13.125 6.25C12.9592 6.25 12.8003 6.31585 12.6831 6.43306C12.5658 6.55027 12.5 6.70924 12.5 6.875V8.125C12.5 8.29076 12.5658 8.44973 12.6831 8.56694C12.8003 8.68415 12.9592 8.75 13.125 8.75H14.375C14.5408 8.75 14.6997 8.68415 14.8169 8.56694C14.9342 8.44973 15 8.29076 15 8.125V6.875C15 6.70924 14.9342 6.55027 14.8169 6.43306C14.6997 6.31585 14.5408 6.25 14.375 6.25H13.125ZM5.625 10C5.45924 10 5.30027 10.0658 5.18306 10.1831C5.06585 10.3003 5 10.4592 5 10.625V11.875C5 12.0408 5.06585 12.1997 5.18306 12.3169C5.30027 12.4342 5.45924 12.5 5.625 12.5H6.875C7.04076 12.5 7.19973 12.4342 7.31694 12.3169C7.43415 12.1997 7.5 12.0408 7.5 11.875V10.625C7.5 10.4592 7.43415 10.3003 7.31694 10.1831C7.19973 10.0658 7.04076 10 6.875 10H5.625ZM9.375 10C9.20924 10 9.05027 10.0658 8.93306 10.1831C8.81585 10.3003 8.75 10.4592 8.75 10.625V11.875C8.75 12.0408 8.81585 12.1997 8.93306 12.3169C9.05027 12.4342 9.20924 12.5 9.375 12.5H10.625C10.7908 12.5 10.9497 12.4342 11.0669 12.3169C11.1842 12.1997 11.25 12.0408 11.25 11.875V10.625C11.25 10.4592 11.1842 10.3003 11.0669 10.1831C10.9497 10.0658 10.7908 10 10.625 10H9.375Z" fill="black"/>
</svg>
