<svg width="200" height="200" viewBox="0 0 200 200" fill="none" xmlns="http://www.w3.org/2000/svg">
<path d="M112.871 54.8241L112.87 54.8233C97.4211 44.1689 79.0927 38.475 60.3263 38.5001L60.325 38.5001L13.5 38.5001V49.0001L60.3236 49.0001C76.9664 48.9775 93.2211 54.025 106.924 63.4705L113.398 67.9263L116.048 69.7501H112.831H57.25V80.2501H131.012H131.323L131.579 80.426L179.204 113.163L179.204 113.164C180.442 114.015 181.376 115.241 181.867 116.661C182.359 118.081 182.383 119.621 181.936 121.056C181.489 122.491 180.594 123.745 179.383 124.635C178.172 125.524 176.707 126.003 175.204 126M112.871 54.8241L13.5 125V126M112.871 54.8241L185.146 104.512C188.23 106.632 190.554 109.683 191.78 113.219C193.005 116.755 193.068 120.59 191.958 124.164C190.848 127.737 188.624 130.863 185.611 133.082C182.598 135.302 178.955 136.499 175.213 136.5H13.5M112.871 54.8241L13.5 136.5M175.204 126L175.206 125V126H175.204ZM175.204 126H13.5M13.5 126V136.5M13.5 126H12.5M12.5 126V136.5H13.5M12.5 126L60.325 37.5001C79.2946 37.4747 97.8215 43.2303 113.438 54.0001L185.713 103.688C188.972 105.929 191.429 109.154 192.725 112.891C194.02 116.629 194.086 120.683 192.913 124.46C191.74 128.238 189.389 131.541 186.204 133.887C183.02 136.234 179.168 137.499 175.213 137.5H13.5V136.5M12.5 126L13.5 136.5M26 168.75V167.75H25H13.5V157.25H186.5V167.75H168.75H167.75V168.75V180.25H157.25V168.75V167.75H156.25H125H124V168.75V180.25H113.5V168.75V167.75H112.5H81.25H80.25V168.75V180.25H69.75V168.75V167.75H68.75H37.5H36.5V168.75V180.25H26V168.75Z" fill="#17A0B5" stroke="#F4F6F8" stroke-width="2"/>
</svg>
