<svg width="85" height="85" viewBox="0 0 85 85" fill="none" xmlns="http://www.w3.org/2000/svg">
<path d="M79.6875 66.4063H5.3125V71.7188H10.625V77.0313H15.9375V71.7188H29.2187V77.0313H34.5312V71.7188H47.8125V77.0313H53.125V71.7188H66.4062V77.0313H71.7187V71.7188H79.6875V66.4063ZM78.9278 44.0672L48.2109 22.95C41.5742 18.3729 33.7002 15.9268 25.6381 15.9375H5.3125V21.25H25.6381C32.6249 21.2406 39.4489 23.3595 45.2014 27.3249L47.9533 29.2188H23.9062V34.5313H55.6803L75.9209 48.4447C76.3725 48.7552 76.7127 49.202 76.892 49.7198C77.0712 50.2377 77.0799 50.7992 76.9169 51.3224C76.7539 51.8455 76.4277 52.3028 75.9861 52.6272C75.5445 52.9515 75.0106 53.126 74.4627 53.125H5.3125V58.4375H74.4653C76.1464 58.4373 77.7834 57.8992 79.1369 56.9021C80.4904 55.905 81.4895 54.5011 81.988 52.8956C82.4866 51.2901 82.4585 49.5672 81.9079 47.9788C81.3573 46.3904 80.3131 45.0197 78.9278 44.0672Z" fill="#17A0B5"/>
</svg>
