<svg width="20" height="20" viewBox="0 0 20 20" fill="none" xmlns="http://www.w3.org/2000/svg">
<path d="M18.75 15.625H1.25V16.875H2.5V18.125H3.75V16.875H6.875V18.125H8.125V16.875H11.25V18.125H12.5V16.875H15.625V18.125H16.875V16.875H18.75V15.625ZM18.5712 10.3688L11.3437 5.40001C9.78215 4.32303 7.92946 3.74747 6.0325 3.75001H1.25V5.00001H6.0325C7.67645 4.99778 9.28209 5.49636 10.6356 6.42938L11.2831 6.87501H5.625V8.12501H13.1012L17.8637 11.3988C17.97 11.4718 18.0501 11.5769 18.0922 11.6988C18.1344 11.8206 18.1365 11.9528 18.0981 12.0759C18.0597 12.199 17.983 12.3065 17.8791 12.3829C17.7752 12.4592 17.6496 12.5002 17.5206 12.5H1.25V13.75H17.5212C17.9168 13.7499 18.302 13.6234 18.6204 13.3887C18.9389 13.1541 19.174 12.8238 19.2913 12.446C19.4086 12.0683 19.402 11.6629 19.2725 11.2891C19.1429 10.9154 18.8972 10.5929 18.5712 10.3688Z" fill="#3D3D3D"/>
</svg>
