<svg width="21" height="22" viewBox="0 0 21 22" fill="none" xmlns="http://www.w3.org/2000/svg">
<g clip-path="url(#clip0_1741_10231)">
<path d="M16.3563 15.9255C17.8094 16.0104 18.9615 17.2156 18.9615 18.69C18.9615 20.2194 17.7217 21.4592 16.1923 21.4592C14.6629 21.4592 13.4231 20.2194 13.4231 18.69C13.4231 18.3663 13.4786 18.0556 13.5807 17.7669H8.5C7.82027 17.7669 7.26923 18.3179 7.26923 18.9977V20.8438C7.26923 21.1837 6.99371 21.4592 6.65385 21.4592C6.31398 21.4592 6.03846 21.1837 6.03846 20.8438V18.9977C6.03846 18.3689 6.27419 17.7953 6.66207 17.3602C6.19664 17.0531 5.83705 16.5895 5.66468 16.0293L4.00513 10.6357C3.84623 10.1193 3.3691 9.7669 2.82878 9.7669H1.11538C0.775517 9.7669 0.5 9.49138 0.5 9.15152C0.5 8.81165 0.775517 8.53613 1.11538 8.53613H2.82878C3.90941 8.53613 4.86367 9.24092 5.18147 10.2738L6.84103 15.6673C6.99993 16.1837 7.47706 16.5361 8.01737 16.5361H8.5H9.28157L10.3511 13.1939C9.82418 12.9332 9.33015 12.5835 8.89141 12.1447C6.72851 9.98181 6.72851 6.47506 8.89141 4.31215C9.93191 3.27166 14.7155 0.536133 15.5769 0.536133C16.1316 0.536133 17.1209 1.3418 18.4076 2.62851C19.6943 3.91523 20.5 4.90453 20.5 5.45921C20.5 6.32059 17.7645 11.1042 16.724 12.1447C16.3156 12.5531 15.8594 12.8843 15.3733 13.1385L16.3563 15.9255ZM11.5091 13.6133L10.5738 16.5361H14.3462C14.3789 16.5361 14.411 16.5387 14.4424 16.5436C14.6475 16.3762 14.877 16.2376 15.1248 16.134L14.2252 13.5834C13.3368 13.8176 12.4015 13.8276 11.5091 13.6133ZM14.9584 11.9621C15.2785 11.7774 15.5799 11.5482 15.8537 11.2744C16.2476 10.8805 17.0846 9.60878 17.913 8.16013C18.6082 6.94444 19.1769 5.78653 19.2591 5.50917C19.2454 5.48337 19.2271 5.4519 19.2045 5.41583C19.1208 5.28231 18.9916 5.10741 18.825 4.90281C18.4943 4.49678 18.0347 3.99621 17.5373 3.4988C17.0399 3.00139 16.5394 2.54179 16.1333 2.21113C15.9287 2.04451 15.7538 1.91529 15.6203 1.83163C15.5842 1.80902 15.5528 1.79076 15.5269 1.77708C15.2496 1.85919 14.0917 2.42794 12.876 3.12313C11.4274 3.95155 10.1556 4.78852 9.7617 5.18244C8.07944 6.8647 8.07944 9.59217 9.7617 11.2744C10.0567 11.5694 10.3838 11.8127 10.7318 12.0042L11.5175 9.5489C11.1745 9.2137 10.9615 8.74594 10.9615 8.22844C10.9615 7.20884 11.7881 6.38229 12.8077 6.38229C13.8273 6.38229 14.6538 7.20884 14.6538 8.22844C14.6538 8.74244 14.4438 9.20737 14.1048 9.54209L14.9584 11.9621ZM13.814 12.4176L12.9876 10.0746H12.6415L11.8856 12.4368C12.5207 12.5754 13.1812 12.5689 13.814 12.4176ZM16.1923 20.2284C17.042 20.2284 17.7308 19.5396 17.7308 18.69C17.7308 17.8403 17.042 17.1515 16.1923 17.1515C15.3426 17.1515 14.6538 17.8403 14.6538 18.69C14.6538 19.5396 15.3426 20.2284 16.1923 20.2284ZM12.8077 8.84382C13.1476 8.84382 13.4231 8.56831 13.4231 8.22844C13.4231 7.88857 13.1476 7.61306 12.8077 7.61306C12.4678 7.61306 12.1923 7.88857 12.1923 8.22844C12.1923 8.56831 12.4678 8.84382 12.8077 8.84382Z" fill="black"/>
</g>
<defs>
<clipPath id="clip0_1741_10231">
<rect width="20" height="20.9231" fill="white" transform="translate(0.5 0.538086)"/>
</clipPath>
</defs>
</svg>
