<svg width="21" height="18" viewBox="0 0 21 18" fill="none" xmlns="http://www.w3.org/2000/svg">
<g clip-path="url(#clip0_1741_10281)">
<mask id="path-1-outside-1_1741_10281" maskUnits="userSpaceOnUse" x="0.533813" y="0.416016" width="20" height="15" fill="black">
<rect fill="white" x="0.533813" y="0.416016" width="20" height="15"/>
<path d="M1.58962 13.2899L2.27625 14.6832C2.3697 14.8729 2.56103 14.9856 2.76227 14.9856C2.82245 14.9856 2.88351 14.9755 2.94309 14.9544L5.47579 14.0571L6.37303 14.4511C6.44278 14.4818 6.51692 14.4968 6.59078 14.4968C6.69984 14.4968 6.80818 14.4639 6.90049 14.3996C7.00296 14.3282 7.07571 14.2249 7.11009 14.1086L9.6841 14.8575C9.73367 14.872 9.78464 14.8791 9.83545 14.8791C9.91496 14.8791 9.99419 14.8616 10.0672 14.827L11.6876 14.0601L14.2119 14.9544C14.2715 14.9754 14.3325 14.9855 14.3927 14.9855C14.5939 14.9855 14.7852 14.8729 14.8787 14.6832L15.4136 13.5983L15.554 13.7924C15.6185 13.8815 15.7084 13.9488 15.812 13.9855L18.547 14.9544C18.6066 14.9754 18.6676 14.9855 18.7278 14.9855C18.929 14.9855 19.1203 14.8729 19.2138 14.6832L19.9007 13.29C19.9764 13.1365 19.9751 12.9563 19.8972 12.8039L19.2298 11.4978C19.2109 11.4609 19.1879 11.4262 19.1611 11.3945L19.067 11.2832C19.1904 11.1778 19.2631 11.0201 19.2569 10.8515L19.1306 7.40463C19.1275 7.32027 19.1047 7.23782 19.0641 7.16381L17.5463 4.39834C17.4615 4.24386 17.3069 4.14027 17.1318 4.12063C17.1116 4.11836 17.0914 4.11725 17.0713 4.11725C17.0357 4.11725 17.0004 4.12092 16.966 4.12778C16.9081 4.05101 16.8301 3.98987 16.7387 3.9524L15.7883 3.56275C15.723 3.53596 15.6532 3.52226 15.5828 3.52226C15.5736 3.52226 15.5645 3.52249 15.5553 3.52296L11.5493 3.72618C11.3062 3.73852 11.1064 3.91023 11.0507 4.13849L8.79798 1.59831C8.69295 1.47989 8.54436 1.41602 8.39251 1.41602C8.32335 1.41602 8.25352 1.42928 8.18681 1.45666L6.39974 2.19067C6.1898 2.27689 6.05587 2.48484 6.06418 2.71163L6.11772 4.17382L5.99721 4.03129C5.89429 3.90954 5.74291 3.83934 5.58351 3.83934H4.99741C4.85027 3.83934 4.70947 3.89914 4.60735 4.0051C4.50523 4.11106 4.4506 4.25393 4.45605 4.40097L4.53767 6.6146C4.53772 6.61617 4.53801 6.61767 4.53809 6.61924L2.8801 6.70334C2.59956 6.71756 2.37643 6.94386 2.36616 7.22458L2.20575 11.6047L1.59316 12.804C1.5153 12.9563 1.51398 13.1365 1.58962 13.2899ZM6.24198 5.16007C6.25104 5.17287 6.26056 5.1852 6.27073 5.19723L7.55806 6.72022L7.11943 6.54004C7.10271 6.53315 7.08565 6.52722 7.06836 6.52205L7.00673 6.49671L6.93388 6.50043C6.92709 6.50017 6.92036 6.49945 6.91354 6.49945C6.90441 6.49945 6.89525 6.49971 6.88611 6.5002L5.07896 6.59194L4.99739 4.38125H5.58348L6.24198 5.16007ZM11.0111 4.91023L10.9515 6.5347L10.2688 6.50007C10.2597 6.4996 10.2506 6.49937 10.2414 6.49937C10.2345 6.49937 10.2277 6.50012 10.2208 6.50038L10.1482 6.49666L10.0863 6.52208C10.0692 6.52719 10.0524 6.5331 10.0358 6.53991L8.60965 7.1251L8.01042 6.4162C8.00116 6.40298 7.99132 6.39008 7.98074 6.37756L6.68438 4.84409L6.60554 2.69178L8.39264 1.95777L11.0111 4.91023ZM16.5304 4.45248L16.5234 4.46033L16.4416 4.49367L16.3312 4.67707L14.8655 6.32995L14.233 6.7012L11.4948 6.56229C11.4949 6.56069 11.4951 6.55916 11.4952 6.55756L11.5547 4.93261C11.5553 4.91602 11.5551 4.89947 11.5542 4.88301L11.5767 4.26724L15.5828 4.06399L16.5304 4.45248ZM18.7154 10.8674L15.226 6.74002L15.2435 6.72027C15.2553 6.70918 15.2667 6.69772 15.2774 6.68559L16.7284 5.05011C16.7404 5.03656 16.7516 5.02234 16.7622 5.00768L16.8978 4.85472C16.9114 4.84208 16.9247 4.82894 16.937 4.81491L16.9407 4.8107C16.9518 4.79803 16.9621 4.78476 16.9719 4.77127L17.0714 4.65901L18.5892 7.42448L18.7154 10.8674ZM15.6828 13.0462L15.5832 12.8512C15.5769 12.8352 15.57 12.8194 15.5621 12.8039L14.9493 11.6046L14.7888 7.22453C14.7882 7.20727 14.7867 7.19021 14.7845 7.17338L14.7801 7.05232C14.7895 7.06582 14.7997 7.07903 14.8105 7.09183L18.3018 11.2211C18.3125 11.2337 18.3238 11.2456 18.3355 11.2571L18.7474 11.7444L19.4148 13.0504L18.7279 14.4437L15.993 13.4749L15.6828 13.0462ZM7.1089 13.5441L7.03682 12.3399C7.03584 12.3234 7.03396 12.307 7.03148 12.2908L7.0289 12.2477L7.0121 12.2078C7.0072 12.1924 7.00167 12.1771 6.99538 12.1621L6.41241 10.7772L8.1464 7.90082L8.76451 7.64719C8.78232 7.64195 8.79999 7.63586 8.81744 7.62871L10.2418 7.04396L10.9262 7.07888C10.9354 7.07934 10.9446 7.07958 10.9538 7.07958C10.9615 7.07958 10.969 7.07883 10.9766 7.07849L11.4097 7.10048C11.4279 7.10329 11.4464 7.10531 11.465 7.10626L14.2004 7.24528C14.2096 7.24577 14.2188 7.24598 14.2279 7.24598C14.2336 7.24598 14.2393 7.24559 14.245 7.24541L14.4053 11.6251C14.4059 11.6422 14.4075 11.6591 14.4098 11.676L14.4123 11.7443L14.4433 11.8051C14.4496 11.8209 14.4565 11.8366 14.4643 11.8518L15.0782 13.0534L14.3928 14.4437L11.6578 13.4748L9.83543 14.3373L7.1089 13.5441ZM2.07556 13.0504L2.74276 11.7444L2.90756 7.2444L5.05687 7.13534C5.06425 7.13565 5.07161 7.13638 5.07904 7.13638C5.08818 7.13638 5.09736 7.13614 5.10653 7.13568L6.91287 7.04391L7.36074 7.2283C7.37868 7.23568 7.39685 7.24187 7.41512 7.24722L7.86714 7.43289L7.77236 7.47186L7.70748 7.57947C7.69705 7.59349 7.68707 7.60786 7.67798 7.62291L5.9457 10.4968C5.93682 10.5115 5.92895 10.5266 5.92157 10.542L5.80619 10.7334L5.89411 10.9422C5.89891 10.9572 5.90418 10.9721 5.91032 10.9867L6.49362 12.3725L6.56549 13.5756C6.5665 13.5925 6.56854 13.6092 6.57109 13.6257L6.59081 13.9551L5.49713 13.4749L2.76219 14.4437L2.07556 13.0504Z"/>
</mask>
<path d="M1.58962 13.2899L2.27625 14.6832C2.3697 14.8729 2.56103 14.9856 2.76227 14.9856C2.82245 14.9856 2.88351 14.9755 2.94309 14.9544L5.47579 14.0571L6.37303 14.4511C6.44278 14.4818 6.51692 14.4968 6.59078 14.4968C6.69984 14.4968 6.80818 14.4639 6.90049 14.3996C7.00296 14.3282 7.07571 14.2249 7.11009 14.1086L9.6841 14.8575C9.73367 14.872 9.78464 14.8791 9.83545 14.8791C9.91496 14.8791 9.99419 14.8616 10.0672 14.827L11.6876 14.0601L14.2119 14.9544C14.2715 14.9754 14.3325 14.9855 14.3927 14.9855C14.5939 14.9855 14.7852 14.8729 14.8787 14.6832L15.4136 13.5983L15.554 13.7924C15.6185 13.8815 15.7084 13.9488 15.812 13.9855L18.547 14.9544C18.6066 14.9754 18.6676 14.9855 18.7278 14.9855C18.929 14.9855 19.1203 14.8729 19.2138 14.6832L19.9007 13.29C19.9764 13.1365 19.9751 12.9563 19.8972 12.8039L19.2298 11.4978C19.2109 11.4609 19.1879 11.4262 19.1611 11.3945L19.067 11.2832C19.1904 11.1778 19.2631 11.0201 19.2569 10.8515L19.1306 7.40463C19.1275 7.32027 19.1047 7.23782 19.0641 7.16381L17.5463 4.39834C17.4615 4.24386 17.3069 4.14027 17.1318 4.12063C17.1116 4.11836 17.0914 4.11725 17.0713 4.11725C17.0357 4.11725 17.0004 4.12092 16.966 4.12778C16.9081 4.05101 16.8301 3.98987 16.7387 3.9524L15.7883 3.56275C15.723 3.53596 15.6532 3.52226 15.5828 3.52226C15.5736 3.52226 15.5645 3.52249 15.5553 3.52296L11.5493 3.72618C11.3062 3.73852 11.1064 3.91023 11.0507 4.13849L8.79798 1.59831C8.69295 1.47989 8.54436 1.41602 8.39251 1.41602C8.32335 1.41602 8.25352 1.42928 8.18681 1.45666L6.39974 2.19067C6.1898 2.27689 6.05587 2.48484 6.06418 2.71163L6.11772 4.17382L5.99721 4.03129C5.89429 3.90954 5.74291 3.83934 5.58351 3.83934H4.99741C4.85027 3.83934 4.70947 3.89914 4.60735 4.0051C4.50523 4.11106 4.4506 4.25393 4.45605 4.40097L4.53767 6.6146C4.53772 6.61617 4.53801 6.61767 4.53809 6.61924L2.8801 6.70334C2.59956 6.71756 2.37643 6.94386 2.36616 7.22458L2.20575 11.6047L1.59316 12.804C1.5153 12.9563 1.51398 13.1365 1.58962 13.2899ZM6.24198 5.16007C6.25104 5.17287 6.26056 5.1852 6.27073 5.19723L7.55806 6.72022L7.11943 6.54004C7.10271 6.53315 7.08565 6.52722 7.06836 6.52205L7.00673 6.49671L6.93388 6.50043C6.92709 6.50017 6.92036 6.49945 6.91354 6.49945C6.90441 6.49945 6.89525 6.49971 6.88611 6.5002L5.07896 6.59194L4.99739 4.38125H5.58348L6.24198 5.16007ZM11.0111 4.91023L10.9515 6.5347L10.2688 6.50007C10.2597 6.4996 10.2506 6.49937 10.2414 6.49937C10.2345 6.49937 10.2277 6.50012 10.2208 6.50038L10.1482 6.49666L10.0863 6.52208C10.0692 6.52719 10.0524 6.5331 10.0358 6.53991L8.60965 7.1251L8.01042 6.4162C8.00116 6.40298 7.99132 6.39008 7.98074 6.37756L6.68438 4.84409L6.60554 2.69178L8.39264 1.95777L11.0111 4.91023ZM16.5304 4.45248L16.5234 4.46033L16.4416 4.49367L16.3312 4.67707L14.8655 6.32995L14.233 6.7012L11.4948 6.56229C11.4949 6.56069 11.4951 6.55916 11.4952 6.55756L11.5547 4.93261C11.5553 4.91602 11.5551 4.89947 11.5542 4.88301L11.5767 4.26724L15.5828 4.06399L16.5304 4.45248ZM18.7154 10.8674L15.226 6.74002L15.2435 6.72027C15.2553 6.70918 15.2667 6.69772 15.2774 6.68559L16.7284 5.05011C16.7404 5.03656 16.7516 5.02234 16.7622 5.00768L16.8978 4.85472C16.9114 4.84208 16.9247 4.82894 16.937 4.81491L16.9407 4.8107C16.9518 4.79803 16.9621 4.78476 16.9719 4.77127L17.0714 4.65901L18.5892 7.42448L18.7154 10.8674ZM15.6828 13.0462L15.5832 12.8512C15.5769 12.8352 15.57 12.8194 15.5621 12.8039L14.9493 11.6046L14.7888 7.22453C14.7882 7.20727 14.7867 7.19021 14.7845 7.17338L14.7801 7.05232C14.7895 7.06582 14.7997 7.07903 14.8105 7.09183L18.3018 11.2211C18.3125 11.2337 18.3238 11.2456 18.3355 11.2571L18.7474 11.7444L19.4148 13.0504L18.7279 14.4437L15.993 13.4749L15.6828 13.0462ZM7.1089 13.5441L7.03682 12.3399C7.03584 12.3234 7.03396 12.307 7.03148 12.2908L7.0289 12.2477L7.0121 12.2078C7.0072 12.1924 7.00167 12.1771 6.99538 12.1621L6.41241 10.7772L8.1464 7.90082L8.76451 7.64719C8.78232 7.64195 8.79999 7.63586 8.81744 7.62871L10.2418 7.04396L10.9262 7.07888C10.9354 7.07934 10.9446 7.07958 10.9538 7.07958C10.9615 7.07958 10.969 7.07883 10.9766 7.07849L11.4097 7.10048C11.4279 7.10329 11.4464 7.10531 11.465 7.10626L14.2004 7.24528C14.2096 7.24577 14.2188 7.24598 14.2279 7.24598C14.2336 7.24598 14.2393 7.24559 14.245 7.24541L14.4053 11.6251C14.4059 11.6422 14.4075 11.6591 14.4098 11.676L14.4123 11.7443L14.4433 11.8051C14.4496 11.8209 14.4565 11.8366 14.4643 11.8518L15.0782 13.0534L14.3928 14.4437L11.6578 13.4748L9.83543 14.3373L7.1089 13.5441ZM2.07556 13.0504L2.74276 11.7444L2.90756 7.2444L5.05687 7.13534C5.06425 7.13565 5.07161 7.13638 5.07904 7.13638C5.08818 7.13638 5.09736 7.13614 5.10653 7.13568L6.91287 7.04391L7.36074 7.2283C7.37868 7.23568 7.39685 7.24187 7.41512 7.24722L7.86714 7.43289L7.77236 7.47186L7.70748 7.57947C7.69705 7.59349 7.68707 7.60786 7.67798 7.62291L5.9457 10.4968C5.93682 10.5115 5.92895 10.5266 5.92157 10.542L5.80619 10.7334L5.89411 10.9422C5.89891 10.9572 5.90418 10.9721 5.91032 10.9867L6.49362 12.3725L6.56549 13.5756C6.5665 13.5925 6.56854 13.6092 6.57109 13.6257L6.59081 13.9551L5.49713 13.4749L2.76219 14.4437L2.07556 13.0504Z" fill="black"/>
<path d="M1.58962 13.2899L2.27625 14.6832C2.3697 14.8729 2.56103 14.9856 2.76227 14.9856C2.82245 14.9856 2.88351 14.9755 2.94309 14.9544L5.47579 14.0571L6.37303 14.4511C6.44278 14.4818 6.51692 14.4968 6.59078 14.4968C6.69984 14.4968 6.80818 14.4639 6.90049 14.3996C7.00296 14.3282 7.07571 14.2249 7.11009 14.1086L9.6841 14.8575C9.73367 14.872 9.78464 14.8791 9.83545 14.8791C9.91496 14.8791 9.99419 14.8616 10.0672 14.827L11.6876 14.0601L14.2119 14.9544C14.2715 14.9754 14.3325 14.9855 14.3927 14.9855C14.5939 14.9855 14.7852 14.8729 14.8787 14.6832L15.4136 13.5983L15.554 13.7924C15.6185 13.8815 15.7084 13.9488 15.812 13.9855L18.547 14.9544C18.6066 14.9754 18.6676 14.9855 18.7278 14.9855C18.929 14.9855 19.1203 14.8729 19.2138 14.6832L19.9007 13.29C19.9764 13.1365 19.9751 12.9563 19.8972 12.8039L19.2298 11.4978C19.2109 11.4609 19.1879 11.4262 19.1611 11.3945L19.067 11.2832C19.1904 11.1778 19.2631 11.0201 19.2569 10.8515L19.1306 7.40463C19.1275 7.32027 19.1047 7.23782 19.0641 7.16381L17.5463 4.39834C17.4615 4.24386 17.3069 4.14027 17.1318 4.12063C17.1116 4.11836 17.0914 4.11725 17.0713 4.11725C17.0357 4.11725 17.0004 4.12092 16.966 4.12778C16.9081 4.05101 16.8301 3.98987 16.7387 3.9524L15.7883 3.56275C15.723 3.53596 15.6532 3.52226 15.5828 3.52226C15.5736 3.52226 15.5645 3.52249 15.5553 3.52296L11.5493 3.72618C11.3062 3.73852 11.1064 3.91023 11.0507 4.13849L8.79798 1.59831C8.69295 1.47989 8.54436 1.41602 8.39251 1.41602C8.32335 1.41602 8.25352 1.42928 8.18681 1.45666L6.39974 2.19067C6.1898 2.27689 6.05587 2.48484 6.06418 2.71163L6.11772 4.17382L5.99721 4.03129C5.89429 3.90954 5.74291 3.83934 5.58351 3.83934H4.99741C4.85027 3.83934 4.70947 3.89914 4.60735 4.0051C4.50523 4.11106 4.4506 4.25393 4.45605 4.40097L4.53767 6.6146C4.53772 6.61617 4.53801 6.61767 4.53809 6.61924L2.8801 6.70334C2.59956 6.71756 2.37643 6.94386 2.36616 7.22458L2.20575 11.6047L1.59316 12.804C1.5153 12.9563 1.51398 13.1365 1.58962 13.2899ZM6.24198 5.16007C6.25104 5.17287 6.26056 5.1852 6.27073 5.19723L7.55806 6.72022L7.11943 6.54004C7.10271 6.53315 7.08565 6.52722 7.06836 6.52205L7.00673 6.49671L6.93388 6.50043C6.92709 6.50017 6.92036 6.49945 6.91354 6.49945C6.90441 6.49945 6.89525 6.49971 6.88611 6.5002L5.07896 6.59194L4.99739 4.38125H5.58348L6.24198 5.16007ZM11.0111 4.91023L10.9515 6.5347L10.2688 6.50007C10.2597 6.4996 10.2506 6.49937 10.2414 6.49937C10.2345 6.49937 10.2277 6.50012 10.2208 6.50038L10.1482 6.49666L10.0863 6.52208C10.0692 6.52719 10.0524 6.5331 10.0358 6.53991L8.60965 7.1251L8.01042 6.4162C8.00116 6.40298 7.99132 6.39008 7.98074 6.37756L6.68438 4.84409L6.60554 2.69178L8.39264 1.95777L11.0111 4.91023ZM16.5304 4.45248L16.5234 4.46033L16.4416 4.49367L16.3312 4.67707L14.8655 6.32995L14.233 6.7012L11.4948 6.56229C11.4949 6.56069 11.4951 6.55916 11.4952 6.55756L11.5547 4.93261C11.5553 4.91602 11.5551 4.89947 11.5542 4.88301L11.5767 4.26724L15.5828 4.06399L16.5304 4.45248ZM18.7154 10.8674L15.226 6.74002L15.2435 6.72027C15.2553 6.70918 15.2667 6.69772 15.2774 6.68559L16.7284 5.05011C16.7404 5.03656 16.7516 5.02234 16.7622 5.00768L16.8978 4.85472C16.9114 4.84208 16.9247 4.82894 16.937 4.81491L16.9407 4.8107C16.9518 4.79803 16.9621 4.78476 16.9719 4.77127L17.0714 4.65901L18.5892 7.42448L18.7154 10.8674ZM15.6828 13.0462L15.5832 12.8512C15.5769 12.8352 15.57 12.8194 15.5621 12.8039L14.9493 11.6046L14.7888 7.22453C14.7882 7.20727 14.7867 7.19021 14.7845 7.17338L14.7801 7.05232C14.7895 7.06582 14.7997 7.07903 14.8105 7.09183L18.3018 11.2211C18.3125 11.2337 18.3238 11.2456 18.3355 11.2571L18.7474 11.7444L19.4148 13.0504L18.7279 14.4437L15.993 13.4749L15.6828 13.0462ZM7.1089 13.5441L7.03682 12.3399C7.03584 12.3234 7.03396 12.307 7.03148 12.2908L7.0289 12.2477L7.0121 12.2078C7.0072 12.1924 7.00167 12.1771 6.99538 12.1621L6.41241 10.7772L8.1464 7.90082L8.76451 7.64719C8.78232 7.64195 8.79999 7.63586 8.81744 7.62871L10.2418 7.04396L10.9262 7.07888C10.9354 7.07934 10.9446 7.07958 10.9538 7.07958C10.9615 7.07958 10.969 7.07883 10.9766 7.07849L11.4097 7.10048C11.4279 7.10329 11.4464 7.10531 11.465 7.10626L14.2004 7.24528C14.2096 7.24577 14.2188 7.24598 14.2279 7.24598C14.2336 7.24598 14.2393 7.24559 14.245 7.24541L14.4053 11.6251C14.4059 11.6422 14.4075 11.6591 14.4098 11.676L14.4123 11.7443L14.4433 11.8051C14.4496 11.8209 14.4565 11.8366 14.4643 11.8518L15.0782 13.0534L14.3928 14.4437L11.6578 13.4748L9.83543 14.3373L7.1089 13.5441ZM2.07556 13.0504L2.74276 11.7444L2.90756 7.2444L5.05687 7.13534C5.06425 7.13565 5.07161 7.13638 5.07904 7.13638C5.08818 7.13638 5.09736 7.13614 5.10653 7.13568L6.91287 7.04391L7.36074 7.2283C7.37868 7.23568 7.39685 7.24187 7.41512 7.24722L7.86714 7.43289L7.77236 7.47186L7.70748 7.57947C7.69705 7.59349 7.68707 7.60786 7.67798 7.62291L5.9457 10.4968C5.93682 10.5115 5.92895 10.5266 5.92157 10.542L5.80619 10.7334L5.89411 10.9422C5.89891 10.9572 5.90418 10.9721 5.91032 10.9867L6.49362 12.3725L6.56549 13.5756C6.5665 13.5925 6.56854 13.6092 6.57109 13.6257L6.59081 13.9551L5.49713 13.4749L2.76219 14.4437L2.07556 13.0504Z" stroke="black" stroke-width="0.8" mask="url(#path-1-outside-1_1741_10281)"/>
</g>
<defs>
<clipPath id="clip0_1741_10281">
<rect width="20" height="16.7226" fill="white" transform="translate(0.5 0.638672)"/>
</clipPath>
</defs>
</svg>
