<svg width="21" height="20" viewBox="0 0 21 20" fill="none" xmlns="http://www.w3.org/2000/svg">
<mask id="path-1-inside-1_1741_10237" fill="white">
<path fill-rule="evenodd" clip-rule="evenodd" d="M2.01974 10.0374C1.76787 10.0374 1.76787 9.6547 2.01974 9.6547H2.50141V7.04366L1.50807 7.21366V12.8132L2.50141 12.9947V10.0374H2.01974ZM4.39891 10.0374C4.14703 10.0374 4.14703 9.6547 4.39891 9.6547H4.88057V6.63637L4.0662 6.77575L4.07953 13.2832L4.88057 13.4297V10.0374H4.39891ZM17.4637 7.07408C17.4697 7.0745 17.4756 7.07533 17.4814 7.07616L18.9016 7.24887C19.0004 7.25637 19.0783 7.33887 19.0783 7.4397V12.4335H19.0777C19.0779 12.5278 19.0079 12.6099 18.9116 12.6224L7.4087 14.143C7.30349 14.143 7.21807 14.0578 7.21807 13.9524L7.19578 6.05679C7.19037 5.92616 7.29391 5.83741 7.4087 5.85137L8.83828 6.02512C8.84412 6.02554 8.84995 6.02637 8.85557 6.0272L10.2758 6.19991C10.2816 6.20033 10.2874 6.20116 10.2931 6.202L11.7131 6.3747C11.7191 6.37512 11.7249 6.37595 11.7308 6.37679L14.5881 6.72429C14.5941 6.7247 14.6002 6.72554 14.6062 6.72658L16.026 6.89929C16.0318 6.8997 16.0377 6.90054 16.0433 6.90137L17.4637 7.07408ZM17.6408 7.48075V12.4062L18.6958 12.2666V7.60908L17.6408 7.48075ZM17.2583 12.4568V7.43429L16.2033 7.30595V12.5964L17.2583 12.4568ZM14.7656 7.13116V12.7866L15.8206 12.647V7.2595L14.7656 7.13116ZM14.3831 12.8372V7.0847L13.3277 6.95637L13.3381 12.9755L14.3831 12.8372ZM11.8906 6.78158V13.1672L12.957 13.0262L12.9464 6.91012L11.8906 6.78158ZM11.5079 13.2178V6.73512L10.4531 6.60679V13.3574L11.5079 13.2178ZM9.01537 6.432V13.5476L10.0704 13.408V6.56012L9.01537 6.432ZM8.63287 13.5985V6.38554L7.57787 6.2572L7.59891 13.7353L8.63287 13.5985ZM5.26328 10.1851H5.74495C5.99682 10.1851 5.99682 10.5678 5.74495 10.5678H5.26328V13.4997L6.42141 13.7114L6.40057 6.37637L5.26307 6.57095L5.26328 10.1851ZM2.88412 6.12845V6.59054L4.88078 6.24887V5.7022L2.88412 6.12845ZM2.88412 6.97825V10.1853H3.36578C3.61766 10.1853 3.61766 10.568 3.36578 10.568H2.88412V13.0647L3.69849 13.2135L3.68537 6.84095L2.88412 6.97825ZM2.88412 13.4524V13.8145L4.88078 14.2697V13.8174L2.88412 13.4524ZM2.66516 14.156C2.65495 14.1545 2.64495 14.1522 2.63516 14.1491L1.28912 13.8422C1.19662 13.8289 1.12537 13.7491 1.12537 13.6528V6.26783C1.12537 6.1795 1.18703 6.10012 1.27703 6.08095L6.54807 4.95533C6.56912 4.95095 6.58995 4.95012 6.61016 4.95241L19.7056 6.5447C19.8029 6.55616 19.8745 6.63887 19.8743 6.7345V13.1312C19.8743 13.2337 19.7937 13.3172 19.6924 13.3222L6.64578 15.0491L6.57328 15.047L2.66516 14.156ZM2.50141 13.7272V13.3824L1.50807 13.201V13.5007L2.50141 13.7272ZM2.50141 6.65595V6.21012L1.50807 6.4222V6.82595L2.50141 6.65595ZM5.26328 5.62033V6.18325L6.39953 5.98866L6.39787 5.37783L5.26328 5.62033ZM5.26328 13.8872V14.3568L6.42391 14.6214L6.42245 14.0989L5.26328 13.8872ZM6.80307 13.9076L6.80516 14.6435L19.4918 12.9643V6.90387L6.77891 5.35804L6.80307 13.9076Z"/>
</mask>
<path fill-rule="evenodd" clip-rule="evenodd" d="M2.01974 10.0374C1.76787 10.0374 1.76787 9.6547 2.01974 9.6547H2.50141V7.04366L1.50807 7.21366V12.8132L2.50141 12.9947V10.0374H2.01974ZM4.39891 10.0374C4.14703 10.0374 4.14703 9.6547 4.39891 9.6547H4.88057V6.63637L4.0662 6.77575L4.07953 13.2832L4.88057 13.4297V10.0374H4.39891ZM17.4637 7.07408C17.4697 7.0745 17.4756 7.07533 17.4814 7.07616L18.9016 7.24887C19.0004 7.25637 19.0783 7.33887 19.0783 7.4397V12.4335H19.0777C19.0779 12.5278 19.0079 12.6099 18.9116 12.6224L7.4087 14.143C7.30349 14.143 7.21807 14.0578 7.21807 13.9524L7.19578 6.05679C7.19037 5.92616 7.29391 5.83741 7.4087 5.85137L8.83828 6.02512C8.84412 6.02554 8.84995 6.02637 8.85557 6.0272L10.2758 6.19991C10.2816 6.20033 10.2874 6.20116 10.2931 6.202L11.7131 6.3747C11.7191 6.37512 11.7249 6.37595 11.7308 6.37679L14.5881 6.72429C14.5941 6.7247 14.6002 6.72554 14.6062 6.72658L16.026 6.89929C16.0318 6.8997 16.0377 6.90054 16.0433 6.90137L17.4637 7.07408ZM17.6408 7.48075V12.4062L18.6958 12.2666V7.60908L17.6408 7.48075ZM17.2583 12.4568V7.43429L16.2033 7.30595V12.5964L17.2583 12.4568ZM14.7656 7.13116V12.7866L15.8206 12.647V7.2595L14.7656 7.13116ZM14.3831 12.8372V7.0847L13.3277 6.95637L13.3381 12.9755L14.3831 12.8372ZM11.8906 6.78158V13.1672L12.957 13.0262L12.9464 6.91012L11.8906 6.78158ZM11.5079 13.2178V6.73512L10.4531 6.60679V13.3574L11.5079 13.2178ZM9.01537 6.432V13.5476L10.0704 13.408V6.56012L9.01537 6.432ZM8.63287 13.5985V6.38554L7.57787 6.2572L7.59891 13.7353L8.63287 13.5985ZM5.26328 10.1851H5.74495C5.99682 10.1851 5.99682 10.5678 5.74495 10.5678H5.26328V13.4997L6.42141 13.7114L6.40057 6.37637L5.26307 6.57095L5.26328 10.1851ZM2.88412 6.12845V6.59054L4.88078 6.24887V5.7022L2.88412 6.12845ZM2.88412 6.97825V10.1853H3.36578C3.61766 10.1853 3.61766 10.568 3.36578 10.568H2.88412V13.0647L3.69849 13.2135L3.68537 6.84095L2.88412 6.97825ZM2.88412 13.4524V13.8145L4.88078 14.2697V13.8174L2.88412 13.4524ZM2.66516 14.156C2.65495 14.1545 2.64495 14.1522 2.63516 14.1491L1.28912 13.8422C1.19662 13.8289 1.12537 13.7491 1.12537 13.6528V6.26783C1.12537 6.1795 1.18703 6.10012 1.27703 6.08095L6.54807 4.95533C6.56912 4.95095 6.58995 4.95012 6.61016 4.95241L19.7056 6.5447C19.8029 6.55616 19.8745 6.63887 19.8743 6.7345V13.1312C19.8743 13.2337 19.7937 13.3172 19.6924 13.3222L6.64578 15.0491L6.57328 15.047L2.66516 14.156ZM2.50141 13.7272V13.3824L1.50807 13.201V13.5007L2.50141 13.7272ZM2.50141 6.65595V6.21012L1.50807 6.4222V6.82595L2.50141 6.65595ZM5.26328 5.62033V6.18325L6.39953 5.98866L6.39787 5.37783L5.26328 5.62033ZM5.26328 13.8872V14.3568L6.42391 14.6214L6.42245 14.0989L5.26328 13.8872ZM6.80307 13.9076L6.80516 14.6435L19.4918 12.9643V6.90387L6.77891 5.35804L6.80307 13.9076Z" fill="black" stroke="black" stroke-width="2" mask="url(#path-1-inside-1_1741_10237)"/>
</svg>
