<svg width="22" height="22" viewBox="0 0 22 22" fill="none" xmlns="http://www.w3.org/2000/svg">
<path d="M2.01411 18.4184C2.03127 18.2859 2.12037 18.1792 2.25325 18.133C2.27041 18.1271 2.36875 18.0849 2.60173 17.8486C2.65431 17.7951 2.70799 17.7377 2.76211 17.6781C3.08265 17.3217 3.40781 16.8828 3.52419 16.7222C3.56225 15.9126 3.87399 14.8896 4.45787 13.697C4.63101 13.1769 6.82155 6.77511 11.4484 1.34375L11.49 1.37939C11.5315 1.36025 11.5773 1.34947 11.6257 1.35277C11.7353 1.36135 11.8292 1.43417 11.8646 1.53823C11.8875 1.60533 12.3453 2.97329 12.2883 4.32431C15.413 1.82951 18.0083 0.91189 19.1218 1.93709C20.497 3.20429 19.0575 7.00941 15.6216 11.1993C14.3621 14.9017 12.1038 16.9257 12.0078 17.0104L10.9472 17.9463L11.5797 16.6813C11.8954 16.0501 12.0349 15.4306 12.0866 14.8982C9.80057 16.9402 7.23449 18.5882 5.48043 18.7196C5.26769 18.9255 4.95661 19.3567 4.60923 19.9302C4.50187 20.1075 4.43323 20.2292 4.43213 20.2312L4.28583 20.4914L4.03855 20.3245C1.94987 18.9145 1.99497 18.5669 2.01411 18.4184ZM4.37713 19.2656C4.50693 19.0661 4.64641 18.8637 4.78523 18.6844C4.49901 18.623 4.24755 18.5015 4.03943 18.3099C3.82449 18.1121 3.67775 17.8519 3.59569 17.5377C3.50417 17.6532 3.40451 17.7762 3.30045 17.8972C3.54553 18.1423 3.78379 18.4195 4.01061 18.7266C4.13645 18.8962 4.25789 19.0782 4.37713 19.2656ZM4.41233 17.9056C5.45403 18.8648 8.75029 17.2447 12.1077 14.1352C12.0961 13.8714 12.0675 13.6578 12.043 13.5179C9.24969 13.3788 6.10501 14.5556 4.37361 15.3259C3.95869 16.5645 3.96155 17.4902 4.41233 17.9056ZM4.87499 14.0998C6.14703 13.0774 7.52379 12.3691 8.84973 11.8769C10.2377 9.60057 9.80409 6.74541 9.79925 6.71637C9.79727 6.70339 9.79595 6.69041 9.79573 6.67743C9.77879 5.64123 10.1414 4.40197 10.522 3.39503C6.73025 8.50695 4.98873 13.8417 4.96981 13.9009C4.93637 13.968 4.90645 14.0336 4.87499 14.0998ZM15.9375 9.91033C15.318 9.64303 14.7831 9.35329 14.32 9.05299C14.0149 9.39201 13.7214 9.71409 13.4482 10.0087C13.877 10.2766 14.3726 10.5362 14.9492 10.7782C15.0764 10.7785 15.1772 10.7804 15.2513 10.7829C15.4918 10.4876 15.7203 10.1968 15.9375 9.91033ZM18.7042 2.30999C18.5245 2.46267 18.335 2.62371 18.1375 2.79223C18.2899 2.93985 18.462 3.09209 18.6499 3.24169C18.7823 3.08615 18.9053 2.94117 19.0184 2.80741C18.9627 2.61271 18.8732 2.45563 18.7491 2.34145C18.7359 2.32913 18.7183 2.32143 18.7042 2.30999ZM11.5331 2.40811C11.1558 3.23421 10.5556 4.70227 10.3906 5.98135C10.8194 5.57347 11.2519 5.18583 11.6838 4.82041C11.8283 3.99211 11.6783 3.03819 11.5331 2.40811ZM12.6047 10.1066C12.0276 9.68483 11.5898 9.25143 11.2572 8.83387C10.9006 9.16717 10.6124 9.44679 10.4148 9.65403C10.5622 9.96533 10.9301 10.415 11.8398 10.8779C12.0397 10.6913 12.2989 10.4289 12.6047 10.1066ZM16.5513 4.15183C16.2895 4.37733 16.0237 4.60657 15.7558 4.83867C16.0017 5.10113 16.2842 5.36953 16.6036 5.62517C16.8459 5.34555 17.0837 5.07033 17.3129 4.80391C17.0056 4.58523 16.7552 4.36567 16.5513 4.15183ZM15.3349 5.20343C15.0069 5.48833 14.6786 5.77433 14.3555 6.05725C14.6247 6.36459 14.9664 6.68579 15.4011 7.00501C15.6814 6.68535 15.9626 6.36349 16.2402 6.04405C15.8983 5.76993 15.5965 5.48349 15.3349 5.20343ZM13.9335 6.42729C13.6259 6.69767 13.3252 6.96343 13.0363 7.22017C13.3441 7.57877 13.7366 7.95431 14.2362 8.32171C14.496 8.03109 14.7629 7.72991 15.0337 7.42301C14.5821 7.08993 14.2202 6.75289 13.9335 6.42729ZM12.6168 7.59483C12.2762 7.89975 11.9564 8.18905 11.6675 8.45415C11.9839 8.85873 12.4104 9.28443 12.9857 9.69979C13.2572 9.40719 13.552 9.08379 13.8633 8.73817C13.3492 8.35801 12.9404 7.96905 12.6168 7.59483ZM10.7642 6.38395C10.784 6.62287 10.8817 7.24481 11.3505 8.00095C11.6365 7.73871 11.948 7.45689 12.2754 7.16385C11.8488 6.57623 11.6248 6.05351 11.51 5.69953C11.2607 5.92085 11.0119 6.14855 10.7642 6.38395ZM10.3644 8.92803C10.5305 8.76589 10.7226 8.58329 10.934 8.38595C10.681 7.99523 10.5156 7.63025 10.4084 7.31631C10.4307 7.72507 10.4337 8.28805 10.3644 8.92803ZM11.9696 5.29957C12.0331 5.55059 12.2173 6.11357 12.6971 6.78721C12.9884 6.52827 13.288 6.26361 13.5914 5.99697C13.1756 5.41925 12.9807 4.90467 12.8903 4.55047C12.6661 4.72405 12.4406 4.90291 12.2124 5.09255C12.1317 5.15987 12.0505 5.23071 11.9696 5.29957ZM14.0147 5.62561C14.3359 5.34467 14.6571 5.06461 14.9726 4.79071C14.5821 4.31859 14.3132 3.89905 14.1605 3.63813C13.904 3.80775 13.6431 3.98815 13.3773 4.18285C13.4172 4.42463 13.5531 4.96847 14.0147 5.62561ZM15.393 4.42617C15.6708 4.18571 15.9408 3.95273 16.1986 3.73053C15.915 3.33827 15.7795 2.98781 15.7148 2.73239C15.3688 2.90355 15.004 3.10793 14.6261 3.34091C14.7642 3.57565 15.0194 3.97407 15.393 4.42617ZM16.6151 3.37237C16.8749 3.14929 17.1173 2.94139 17.336 2.75417C17.1499 2.54517 17.0102 2.36675 16.92 2.24465C16.6998 2.31109 16.4688 2.39293 16.2237 2.49699C16.2567 2.67849 16.3498 2.99397 16.6151 3.37237ZM16.9671 3.79411C17.153 3.98573 17.3846 4.18527 17.6726 4.38547C17.89 4.13225 18.0983 3.88871 18.2924 3.66145C18.0787 3.49073 17.8862 3.31825 17.7162 3.15193C17.4748 3.35829 17.2238 3.57345 16.9671 3.79411ZM18.7365 3.98793C18.5599 4.19495 18.3614 4.42705 18.143 4.68181C18.3287 4.78851 18.5311 4.89433 18.7539 4.99839C18.8578 4.69589 18.937 4.41319 18.9917 4.15183C18.9042 4.09859 18.8193 4.04403 18.7365 3.98793ZM17.7787 5.10619C17.5474 5.37503 17.3021 5.65949 17.0472 5.95407C17.3648 6.17143 17.7124 6.37141 18.0908 6.53993C18.273 6.18089 18.4285 5.83901 18.5601 5.51473C18.2721 5.38163 18.0123 5.24501 17.7787 5.10619ZM16.6828 6.37427C16.4136 6.68425 16.1375 7.00105 15.8592 7.31829C16.2519 7.56733 16.7084 7.81109 17.2342 8.04231C17.4537 7.69273 17.653 7.35393 17.8328 7.02657C17.4137 6.83759 17.0307 6.61495 16.6828 6.37427ZM15.4898 7.73849C15.2225 8.04209 14.9556 8.34327 14.6947 8.63543C15.1448 8.92363 15.6682 9.20105 16.2754 9.45581C16.5093 9.13417 16.7284 8.81869 16.9323 8.51069C16.3819 8.26407 15.9032 8.00425 15.4898 7.73849ZM13.0638 10.4187C12.8762 10.6165 12.7026 10.7963 12.546 10.9536C12.9921 10.8911 13.4 10.8502 13.7606 10.8238C13.5115 10.6915 13.2792 10.5562 13.0638 10.4187ZM10.1271 10.2315C10.008 10.6863 9.84435 11.1527 9.62149 11.6107C10.1854 11.4325 10.7327 11.2933 11.253 11.1824C10.6977 10.8559 10.3464 10.5276 10.1271 10.2315ZM17.5105 2.10715C17.5789 2.19185 17.6614 2.28953 17.756 2.39535C17.8935 2.27809 18.0154 2.17403 18.1188 2.08581C17.9379 2.06557 17.7342 2.07327 17.5105 2.10715ZM13.0418 14.9824C13.4352 13.6593 14 13.5 14 13.5C13.5 14.5 14 13 13.8239 13.7935C14.2384 13.0928 14.6496 12.2694 14.9935 11.3282C13.7139 11.3188 9.28599 11.5064 5.61749 14.2208C7.48793 13.5172 10.008 12.8115 12.2897 12.9826L12.483 12.9969L12.5343 13.1841C12.5499 13.2411 12.8295 14.2978 12.5275 15.6462C12.6865 15.4537 12.8606 15.2308 13.0418 14.9824ZM3.91975 19.5712C3.80535 19.391 3.68875 19.2159 3.56841 19.0533C3.36205 18.7737 3.14623 18.5218 2.92535 18.2992C2.82305 18.3982 2.72845 18.4813 2.64485 18.5396C2.85539 18.7691 3.37635 19.182 3.91975 19.5712Z" fill="#17A0B5"/>
</svg>
