<svg width="22" height="22" viewBox="0 0 22 22" fill="none" xmlns="http://www.w3.org/2000/svg">
<path d="M18.0376 16.9736L18.0375 16.9742C17.8886 17.5045 17.8893 18.0516 18.0396 18.5536L18.0398 18.5542C18.2062 19.119 18.1284 19.6591 17.7337 19.9293L17.7332 19.9297C17.4274 20.137 17.0242 20.122 16.6139 19.9366L16.6133 19.9363C15.8441 19.5847 15.0785 19.4952 14.3901 19.6646C13.2717 19.9427 12.1415 20.0804 11.0113 20.0804C9.87813 20.0804 8.74218 19.9427 7.61505 19.6616C6.92965 19.4924 6.16144 19.5819 5.39538 19.9333C4.98573 20.1215 4.5755 20.1407 4.26857 19.929L4.26846 19.929C3.8775 19.6588 3.79932 19.1223 3.96275 18.5578L3.96281 18.5576C4.11095 18.0485 4.11385 17.501 3.96531 16.9744L3.96513 16.9738C3.26317 14.4433 3.25685 11.6898 3.94129 9.19666C3.64254 8.93612 3.4952 8.52283 3.59807 8.11133L3.59815 8.111H3.59815C3.6745 7.80856 3.88062 7.55687 4.14969 7.41679C4.14574 7.31329 4.15633 7.20922 4.18267 7.1039L4.18297 7.10269L4.18297 7.10269C4.25508 6.82409 4.4296 6.58639 4.68028 6.43796C4.91947 6.29471 5.19976 6.24995 5.47169 6.31318C5.80803 5.91346 6.28997 5.63874 6.82903 5.53866C6.82516 5.4918 6.82305 5.44381 6.82305 5.39501C6.82305 4.30202 7.76451 3.43016 8.92435 3.34636C9.21918 2.49388 10.1063 1.91055 11.1021 1.91055C12.0973 1.91055 12.9791 2.48991 13.2767 3.33986C14.5272 3.32561 15.5883 4.23884 15.5883 5.39501C15.5883 5.47919 15.5831 5.56399 15.5716 5.64847C15.9529 5.78777 16.28 6.0184 16.5266 6.31641C17.0956 6.18416 17.6727 6.53411 17.8194 7.10148C17.8196 7.10196 17.8197 7.10244 17.8198 7.10292L17.6745 7.14028C17.7086 7.2623 17.7143 7.39001 17.6944 7.51203L18.0376 16.9736ZM18.0376 16.9736C18.7367 14.4434 18.743 11.6929 18.0615 9.20008C18.3606 8.94136 18.5103 8.5255 18.4045 8.11357C18.3283 7.81185 18.1228 7.56066 17.8546 7.42046L18.0376 16.9736ZM4.01886 8.22433C3.97629 8.39176 3.99332 8.56771 4.08413 8.71811C4.17494 8.86852 4.31684 8.97352 4.48427 9.01609M4.01886 8.22433H17.9782C18.0208 8.39176 17.9952 8.56771 17.9072 8.71811C17.8193 8.86852 17.6774 8.97352 17.5071 9.01609C13.222 10.1087 8.79211 10.1087 4.48427 9.01609M4.01886 8.22433C4.07846 7.98595 4.27143 7.80149 4.50697 7.75041L4.5384 7.89708C4.53846 7.89707 4.53852 7.89706 4.53858 7.89704M4.48427 9.01609L4.52114 8.87069M4.48427 9.01609L4.52123 8.87071C4.5212 8.87071 4.52117 8.8707 4.52114 8.87069M4.53858 7.89704C4.35863 7.93614 4.21005 8.07806 4.16438 8.26071L4.16424 8.26129C4.13019 8.3952 4.14518 8.52901 4.21254 8.64058C4.28307 8.7574 4.39218 8.83788 4.52114 8.87069M4.53858 7.89704C4.62073 7.87939 4.68974 7.82722 4.73019 7.75788C4.76901 7.69132 4.78412 7.60331 4.75373 7.51965C4.72692 7.43538 4.72431 7.3456 4.74634 7.25247C4.77912 7.12227 4.86141 7.01378 4.97479 6.94597C5.05474 6.89948 5.14206 6.87595 5.22778 6.87595C5.27156 6.87595 5.31148 6.8806 5.34655 6.89035L5.34654 6.89038L5.34988 6.89123C9.10568 7.84232 12.9053 7.84238 16.6415 6.89122C16.9112 6.82335 17.1837 6.98593 17.251 7.251L17.2513 7.25206C17.2749 7.34215 17.2709 7.43489 17.2424 7.52243L17.2424 7.52242L17.2417 7.52468C17.2196 7.59647 17.2233 7.68319 17.2669 7.75788L17.3964 7.6823L17.2669 7.75789C17.3073 7.82717 17.3762 7.87931 17.4583 7.897C17.6383 7.93605 17.787 8.078 17.8327 8.26071L17.8328 8.26129C17.8655 8.38991 17.8462 8.52544 17.7778 8.64238C17.7106 8.75721 17.6027 8.83758 17.4707 8.87056L17.47 8.87074C13.2093 9.95709 8.80484 9.95714 4.52114 8.87069" fill="#17A0B5" stroke="#17A0B5" stroke-width="0.3"/>
<path d="M11.8031 6.05961C11.7378 6.10218 11.7151 6.18731 11.7576 6.25542L11.8286 6.36893C11.8541 6.4115 11.9024 6.4342 11.9478 6.4342C11.9733 6.4342 11.9989 6.42853 12.0216 6.4115C12.0868 6.36893 12.1095 6.2838 12.067 6.21569L11.996 6.10218C11.9591 6.03974 11.8712 6.01988 11.8031 6.05961Z" fill="#17A0B5"/>
<path d="M12.1749 4.1689C12.2032 4.21147 12.2487 4.23417 12.2941 4.23417C12.3196 4.23417 12.3451 4.22849 12.3707 4.21147C12.4359 4.1689 12.4558 4.08093 12.4161 4.01566L12.3451 3.90498C12.3026 3.83971 12.2146 3.81701 12.1493 3.85957C12.0841 3.90214 12.0642 3.99012 12.1039 4.05539L12.1749 4.1689Z" fill="#17A0B5"/>
<path d="M13.9343 6.42437C13.9599 6.46694 14.0081 6.48964 14.0535 6.48964C14.0791 6.48964 14.1046 6.48397 14.1273 6.46694C14.1926 6.42437 14.2153 6.3364 14.1727 6.27113L14.1018 6.15761C14.0592 6.08951 13.9712 6.06964 13.906 6.11221C13.8407 6.15478 13.818 6.24275 13.8606 6.30802L13.9343 6.42437Z" fill="#17A0B5"/>
<path d="M13.0119 6.17277C12.9466 6.21534 12.9239 6.30331 12.9665 6.36858L13.0375 6.48209C13.0658 6.52466 13.1112 6.5502 13.1566 6.5502C13.1822 6.5502 13.2077 6.54452 13.2304 6.5275C13.2957 6.48493 13.3184 6.39696 13.2758 6.33169L13.2049 6.21817C13.1652 6.1529 13.0772 6.13304 13.0119 6.17277Z" fill="#17A0B5"/>
<path d="M12.8303 5.44429C12.8587 5.48686 12.9041 5.5124 12.9495 5.5124C12.9751 5.5124 13.0006 5.50672 13.0233 5.4897C13.0886 5.44713 13.1113 5.35915 13.0687 5.29388L12.9978 5.18037C12.9552 5.1151 12.8701 5.0924 12.802 5.13497C12.7367 5.17753 12.714 5.26551 12.7565 5.33078L12.8303 5.44429Z" fill="#17A0B5"/>
<path d="M11.647 5.18541C11.6754 5.22798 11.7208 5.25068 11.7662 5.25068C11.7918 5.25068 11.8173 5.245 11.8428 5.22798C11.9081 5.18541 11.928 5.09744 11.8883 5.03217L11.8173 4.91865C11.7747 4.85338 11.6868 4.83068 11.6215 4.87325C11.5562 4.91581 11.5364 5.00379 11.5761 5.06906L11.647 5.18541Z" fill="#17A0B5"/>
<path d="M10.7956 4.6142L10.7247 4.50068C10.6821 4.43541 10.5941 4.41271 10.5288 4.45528C10.4636 4.49785 10.4437 4.58582 10.4834 4.65109L10.5544 4.7646C10.5828 4.80717 10.6282 4.82987 10.6736 4.82987C10.6991 4.82987 10.7247 4.8242 10.7502 4.80717C10.8183 4.76744 10.8382 4.6823 10.7956 4.6142Z" fill="#17A0B5"/>
<path d="M11.0426 5.94623L10.9716 5.83271C10.9291 5.76744 10.8439 5.74474 10.7758 5.78731C10.7106 5.82988 10.6879 5.91501 10.7304 5.98312L10.8014 6.09663C10.8269 6.1392 10.8752 6.1619 10.9206 6.1619C10.9461 6.1619 10.9716 6.15623 10.9943 6.1392C11.0625 6.09947 11.0823 6.01434 11.0426 5.94623Z" fill="#17A0B5"/>
<path d="M13.5398 4.87788C13.5682 4.92045 13.6136 4.94599 13.659 4.94599C13.6845 4.94599 13.7101 4.94032 13.7328 4.92329C13.798 4.88072 13.8208 4.79275 13.7782 4.72748L13.7072 4.61396C13.6647 4.54869 13.5767 4.52599 13.5114 4.56856C13.4462 4.61113 13.4235 4.6991 13.466 4.76437L13.5398 4.87788Z" fill="#17A0B5"/>
</svg>
