<svg width="37" height="50" viewBox="0 0 37 50" fill="none" xmlns="http://www.w3.org/2000/svg">
<g clip-path="url(#clip0_3390_8309)">
<path d="M16.9005 28.3837C26.8031 25.3523 30.7318 20.0817 30.7318 12.2506C30.7318 5.98575 30.7318 7.07205 25.1457 7.07199L6.3564 7.07199C3.05507 7.07199 2.85218 6.18793 3.05531 15.2821C3.25844 24.3763 13.3457 27.5417 16.9005 28.3837ZM16.9005 28.3837C16.9005 40.0523 16.7847 40.4271 17.3348 42.0691C20.3756 51.1447 33.5235 49.4694 35 39.332" stroke="#17A0B5" stroke-width="4" stroke-linecap="round"/>
<path d="M7 2C7 1.44772 7.44772 1 8 1C8.55228 1 9 1.44772 9 2V7H7V2Z" fill="#17A0B5" stroke="#17A0B5" stroke-width="2"/>
<path d="M23 2C23 1.44772 23.4477 1 24 1C24.5523 1 25 1.44772 25 2V7H23V2Z" fill="#17A0B5" stroke="#17A0B5" stroke-width="2"/>
</g>
<defs>
<clipPath id="clip0_3390_8309">
<rect width="37" height="50" fill="white"/>
</clipPath>
</defs>
</svg>
