<svg width="20" height="20" viewBox="0 0 20 20" fill="none" xmlns="http://www.w3.org/2000/svg">
<path d="M5.67134 6.41401H16.0817H16.4296L16.1907 6.66699L14.2168 8.75762L14.1331 8.85792C13.9887 9.0575 13.9202 9.3089 13.9429 9.56155C13.9658 9.81577 14.0791 10.0495 14.2574 10.2159C14.4355 10.3821 14.665 10.469 14.899 10.4614C15.133 10.4539 15.3572 10.3523 15.5257 10.1747L5.67134 6.41401ZM5.67134 6.41401C5.43644 6.41374 5.20887 6.3186 5.0355 6.14536C4.8619 5.97187 4.75601 5.73312 4.74182 5.47733C4.72763 5.22152 4.80641 4.97077 4.96017 4.77632C5.11276 4.58333 5.32712 4.46079 5.55885 4.43041L5.67591 4.423H16.0827H16.4305L16.1918 4.17005L14.2136 2.07378L14.2136 2.07374C14.0378 1.88762 13.9377 1.63349 13.9377 1.36686C13.9377 1.10038 14.0377 0.847368 14.2136 0.661144C14.3748 0.490502 14.5877 0.389498 14.8118 0.374584C15.0343 0.359774 15.2554 0.430673 15.4342 0.576046L15.5289 0.66453L19.3522 4.71164C19.5136 4.8825 19.6118 5.11132 19.6263 5.3556C19.6408 5.59833 19.5714 5.83736 19.4328 6.02835L19.3491 6.12874L15.5259 10.1745L5.67134 6.41401ZM5.13116 9.53678C5.3629 9.53678 5.58731 9.62911 5.75961 9.79713L5.78619 9.82524C5.8733 9.91734 5.94282 10.0272 5.9904 10.1486C6.03798 10.2701 6.06256 10.4006 6.06256 10.5326C6.06256 10.6646 6.03798 10.7951 5.9904 10.9166C5.94282 11.0381 5.8733 11.1479 5.78619 11.24L5.78611 11.2401L3.80898 13.3341L3.57012 13.587H3.91804H14.3285C14.5729 13.587 14.8092 13.6897 14.9847 13.8756C15.1605 14.0617 15.2607 14.3159 15.2607 14.5825C15.2607 14.8492 15.1605 15.1034 14.9847 15.2895C14.8092 15.4754 14.5729 15.578 14.3285 15.578H3.91804H3.56999L3.80901 15.8311L5.78722 17.925L5.78725 17.9251C5.8743 18.0172 5.94378 18.1269 5.99134 18.2484C6.03891 18.3698 6.06351 18.5002 6.06355 18.6321C6.06359 18.764 6.03908 18.8945 5.9916 19.0159C5.94412 19.1374 5.87471 19.2472 5.78772 19.3394C5.70075 19.4315 5.59796 19.5041 5.48544 19.5535L5.54572 19.6908L5.48544 19.5535C5.37295 19.6029 5.25271 19.6282 5.13149 19.6282C5.01026 19.6283 4.89 19.603 4.77748 19.5538C4.66494 19.5045 4.56209 19.4319 4.47506 19.3399L0.648554 15.2894C0.472781 15.1033 0.372656 14.8492 0.372656 14.5825C0.372656 14.3159 0.472775 14.0618 0.648539 13.8757C0.648544 13.8757 0.648549 13.8757 0.648555 13.8757L4.47509 9.82519C4.65064 9.63942 4.88682 9.53678 5.13116 9.53678Z" fill="#17A0B5" stroke="white" stroke-width="0.3"/>
</svg>
