<svg width="17" height="16" viewBox="0 0 17 16" fill="none" xmlns="http://www.w3.org/2000/svg">
<path d="M9.875 0C7.33 0 4.625 0.70125 4.625 2V3.39625C4.67588 3.38213 4.72845 3.37498 4.78125 3.375C4.90555 3.37329 5.02675 3.41384 5.125 3.49V2.89C6.0225 3.61625 7.9925 4 9.875 4C11.7575 4 13.7275 3.61625 14.625 2.89V3.5C14.625 3.97 13.8175 4.4625 12.5675 4.75625C12.5342 4.76231 12.5024 4.77509 12.4742 4.7938C12.4459 4.81251 12.4218 4.83677 12.4032 4.8651C12.3846 4.89342 12.372 4.92524 12.3661 4.9586C12.3602 4.99196 12.3611 5.02617 12.3688 5.05916C12.3765 5.09215 12.3909 5.12323 12.411 5.1505C12.4311 5.17778 12.4565 5.20069 12.4857 5.21783C12.5149 5.23498 12.5473 5.24601 12.5809 5.25025C12.6146 5.25449 12.6487 5.25185 12.6812 5.2425C13.55 5.03875 14.21 4.75 14.6237 4.405V5.25C14.6237 5.96 12.6725 6.75 9.87375 6.75C8.50625 6.75 7.3425 6.56125 6.50875 6.285L6.75875 6.69625L6.89125 6.91125C7.8689 7.14198 8.87051 7.25569 9.875 7.25C11.7575 7.25 13.7275 6.86625 14.625 6.14V9.71094C14.625 9.77724 14.9531 9.45312 15 9.5C14.9337 9.5 15.0469 9.54688 15 9.5C15.0663 9.5 15.0781 9.81251 15.125 9.76562C15.125 9.66406 15.125 7.6913 15.125 7.625V2C15.125 0.70125 12.42 0 9.875 0ZM9.875 3.5C7.07625 3.5 5.125 2.71 5.125 2C5.125 1.29 7.07625 0.5 9.875 0.5C12.6737 0.5 14.625 1.29 14.625 2C14.625 2.71 12.6737 3.5 9.875 3.5Z" fill="black"/>
<path d="M7.375 1.375C6.75 1.375 6.125 1.56875 6.125 2C6.125 2.43125 6.75 2.625 7.375 2.625C8 2.625 8.625 2.43125 8.625 2C8.625 1.56875 8 1.375 7.375 1.375ZM7.375 2.125C7.13788 2.13338 6.90173 2.09075 6.6825 2C6.90173 1.90925 7.13788 1.86662 7.375 1.875C7.61253 1.86648 7.84913 1.90911 8.06875 2C7.84913 2.09089 7.61253 2.13352 7.375 2.125Z" fill="black"/>
<path d="M14.875 9.375C14.8087 9.375 14.7451 9.40134 14.6982 9.44822C14.6513 9.49511 14.625 9.5587 14.625 9.625V10.75C14.625 11.46 12.6737 12.25 9.875 12.25C9.28482 12.2515 8.6952 12.2139 8.11 12.1375C8.0454 12.2995 7.96677 12.4555 7.875 12.6038C8.53718 12.7014 9.20565 12.7503 9.875 12.75C11.7575 12.75 13.7275 12.3663 14.625 11.64V13.8475C14.5937 14.6462 12.6775 15.5 9.875 15.5C7.41375 15.5 5.63625 14.8238 5.22 14.1112C5.1125 14.12 5.00375 14.125 4.8925 14.125C4.8225 14.125 4.7525 14.125 4.6825 14.125C5.045 15.2162 7.16875 16 9.875 16C12.82 16 15.0762 15.0838 15.125 13.8575V9.625C15.125 9.5587 15.0987 9.49511 15.0518 9.44822C15.0049 9.40134 14.9413 9.375 14.875 9.375Z" fill="black"/>
<path d="M7.66245 11.91C8.69995 9.17625 5.62495 6.73375 4.9862 4.25C4.9212 4 4.8512 3.875 4.77995 3.875C4.7087 3.875 4.6387 4 4.5687 4.25C3.9437 6.5 1.6837 8.69125 1.8862 11.1613C2.0212 12.7863 3.45995 13.6263 4.8862 13.6263C6.0612 13.625 7.22495 13.0637 7.66245 11.91ZM2.3862 11.125C2.27495 9.765 2.99995 8.48125 3.77245 7.125C4.1447 6.49527 4.47864 5.84367 4.77245 5.17375C5.09947 5.88506 5.47885 6.57111 5.90745 7.22625C6.86245 8.77 7.7637 10.2262 7.1912 11.7362C6.8062 12.7587 5.74995 13.125 4.8912 13.125C3.76495 13.125 2.49995 12.5 2.3862 11.125Z" fill="black"/>
<path d="M4.135 8.91415C4.07913 8.87856 4.01141 8.8666 3.94673 8.88089C3.88204 8.89519 3.82567 8.93458 3.79 8.9904C3.7525 9.0479 2.88875 10.4254 3.425 11.7204C3.45037 11.7817 3.49905 11.8305 3.56035 11.8559C3.62165 11.8813 3.69055 11.8814 3.75188 11.856C3.81321 11.8307 3.86196 11.782 3.88739 11.7207C3.91282 11.6594 3.91287 11.5905 3.8875 11.5292C3.45125 10.4779 4.2025 9.27915 4.21125 9.25915C4.24685 9.20328 4.25881 9.13556 4.24452 9.07088C4.23022 9.00619 4.19083 8.94982 4.135 8.91415Z" fill="black"/>
</svg>
