<svg width="21" height="20" viewBox="0 0 21 20" fill="none" xmlns="http://www.w3.org/2000/svg">
<g clip-path="url(#clip0_1741_10279)">
<mask id="path-1-outside-1_1741_10279" maskUnits="userSpaceOnUse" x="0.582031" y="3.28125" width="20" height="13" fill="black">
<rect fill="white" x="0.582031" y="3.28125" width="20" height="13"/>
<path d="M19.5 15.1175H18.536L19.408 11.9355C19.4071 11.9315 19.4071 11.9274 19.408 11.9235C19.409 11.9128 19.409 11.9021 19.408 11.8915C19.409 11.8822 19.409 11.8728 19.408 11.8635V11.8335C19.408 11.8235 19.408 11.8135 19.408 11.8035C19.409 11.7988 19.409 11.7941 19.408 11.7895V11.7735C19.4089 11.7648 19.4089 11.7561 19.408 11.7475C19.408 11.7355 19.408 11.7255 19.394 11.7155V11.7035L18.4 10.0575C18.3747 10.0175 18.3404 9.98401 18.3 9.95946L16.038 8.44546V7.75146C16.038 7.71092 16.0298 7.6708 16.014 7.63346L15.002 5.28346C14.9762 5.22213 14.9304 5.17137 14.872 5.13946L13.402 4.31946C13.3411 4.28601 13.2706 4.27404 13.202 4.28546L11.1 4.61546H11.09C11.062 4.61922 11.0349 4.62803 11.01 4.64146C10.9959 4.64796 10.9824 4.65601 10.97 4.66546C10.9622 4.67228 10.9549 4.67963 10.948 4.68746L9.37603 6.29946H8.08803C8.0197 6.29956 7.95343 6.32282 7.90003 6.36546L5.53003 8.26546C5.50307 8.28893 5.48011 8.31662 5.46203 8.34746L4.26203 10.5155H2.76603L2.69003 10.5275H2.67803C2.6561 10.5346 2.63524 10.5447 2.61603 10.5575H2.60603L2.59203 10.5695C2.57213 10.5847 2.55401 10.6021 2.53803 10.6215C2.52222 10.6451 2.50945 10.6706 2.50003 10.6975L1.59803 13.4255C1.57386 13.4983 1.57815 13.5776 1.61003 13.6475L2.30003 15.1175H1.88203C1.80247 15.1175 1.72616 15.1491 1.6699 15.2053C1.61364 15.2616 1.58203 15.3379 1.58203 15.4175C1.58203 15.497 1.61364 15.5733 1.6699 15.6296C1.72616 15.6859 1.80247 15.7175 1.88203 15.7175H19.5C19.5796 15.7175 19.6559 15.6859 19.7122 15.6296C19.7684 15.5733 19.8 15.497 19.8 15.4175C19.8 15.3379 19.7684 15.2616 19.7122 15.2053C19.6559 15.1491 19.5796 15.1175 19.5 15.1175ZM17.918 10.4215L18.65 11.6575L15.312 12.4255L13.7 10.9815C13.6404 10.9284 13.5621 10.9012 13.4824 10.9059C13.4026 10.9106 13.3281 10.9468 13.275 11.0065C13.222 11.0661 13.1948 11.1444 13.1995 11.2241C13.2042 11.3038 13.2404 11.3784 13.3 11.4315L14.938 12.8875V15.1175H12.342L11.942 14.1175L12.832 13.5655C12.8819 13.5344 12.9215 13.4895 12.946 13.4362C12.9706 13.3828 12.9789 13.3235 12.97 13.2655L12.618 10.9855L15.736 8.96546L17.918 10.4215ZM6.50003 15.1175L6.91603 12.8675L7.61203 11.8375L8.25403 13.3995L7.62803 15.1215L6.50003 15.1175ZM4.31803 11.1395L5.82803 12.4515H4.14203L3.31803 11.1395H4.31803ZM4.81003 10.7715L5.75003 9.07346L7.30003 11.2135L6.56403 12.3035L4.81003 10.7715ZM9.76603 10.1995L10.166 11.9195C10.1863 11.9945 10.2349 12.0587 10.3017 12.0986C10.3684 12.1385 10.448 12.151 10.5237 12.1333C10.5994 12.1157 10.6653 12.0694 10.7075 12.0041C10.7497 11.9388 10.765 11.8597 10.75 11.7835L10.392 10.2575L12.02 11.0395L12.344 13.1615L11.5 13.6795L8.79203 13.1255L8.04403 11.3255L9.76603 10.1995ZM8.76603 13.7335L11.348 14.2595L11.7 15.1175H8.26803L8.76603 13.7335ZM14.5 5.61346L15.446 7.81346V8.44346L12.27 10.4955L10.234 9.51146L9.81003 6.71146L11.126 5.36346L12.624 7.30746L11.1 8.42746C11.0681 8.45047 11.0411 8.47957 11.0205 8.51308C10.9999 8.54659 10.9861 8.58385 10.98 8.62271C10.9738 8.66157 10.9754 8.70126 10.9847 8.73949C10.994 8.77772 11.0108 8.81374 11.034 8.84546C11.062 8.88349 11.0984 8.9145 11.1404 8.93602C11.1824 8.95755 11.2288 8.96899 11.276 8.96946C11.3403 8.96917 11.4027 8.94812 11.454 8.90946L13.098 7.70946L13.918 7.96346C13.9471 7.97297 13.9775 7.9777 14.008 7.97746C14.0824 7.98169 14.1557 7.9581 14.2136 7.91128C14.2716 7.86447 14.31 7.79777 14.3215 7.72416C14.333 7.65056 14.3167 7.57532 14.2757 7.51309C14.2348 7.45085 14.1722 7.40607 14.1 7.38746L13.226 7.11546L11.7 5.12946L13.202 4.89346L14.5 5.61346ZM8.20003 6.91546H9.24203L9.64203 9.56746L7.74603 10.7995L6.12803 8.57146L8.20003 6.91546ZM2.85803 11.5355L3.72403 12.9115C3.7508 12.9546 3.78823 12.9902 3.83271 13.0147C3.87719 13.0392 3.92724 13.0519 3.97803 13.0515H6.26803L5.88603 15.1175H3.30003L3.90003 14.1535C3.9414 14.0853 3.95401 14.0035 3.93507 13.926C3.91612 13.8486 3.86719 13.7818 3.79903 13.7405C3.73087 13.6991 3.64907 13.6865 3.57161 13.7054C3.49416 13.7244 3.4274 13.7733 3.38603 13.8415L2.81403 14.7835L2.21403 13.4995L2.85803 11.5355ZM15.53 15.1175V12.9995L18.7 12.2615L17.912 15.1175H15.53Z"/>
</mask>
<path d="M19.5 15.1175H18.536L19.408 11.9355C19.4071 11.9315 19.4071 11.9274 19.408 11.9235C19.409 11.9128 19.409 11.9021 19.408 11.8915C19.409 11.8822 19.409 11.8728 19.408 11.8635V11.8335C19.408 11.8235 19.408 11.8135 19.408 11.8035C19.409 11.7988 19.409 11.7941 19.408 11.7895V11.7735C19.4089 11.7648 19.4089 11.7561 19.408 11.7475C19.408 11.7355 19.408 11.7255 19.394 11.7155V11.7035L18.4 10.0575C18.3747 10.0175 18.3404 9.98401 18.3 9.95946L16.038 8.44546V7.75146C16.038 7.71092 16.0298 7.6708 16.014 7.63346L15.002 5.28346C14.9762 5.22213 14.9304 5.17137 14.872 5.13946L13.402 4.31946C13.3411 4.28601 13.2706 4.27404 13.202 4.28546L11.1 4.61546H11.09C11.062 4.61922 11.0349 4.62803 11.01 4.64146C10.9959 4.64796 10.9824 4.65601 10.97 4.66546C10.9622 4.67228 10.9549 4.67963 10.948 4.68746L9.37603 6.29946H8.08803C8.0197 6.29956 7.95343 6.32282 7.90003 6.36546L5.53003 8.26546C5.50307 8.28893 5.48011 8.31662 5.46203 8.34746L4.26203 10.5155H2.76603L2.69003 10.5275H2.67803C2.6561 10.5346 2.63524 10.5447 2.61603 10.5575H2.60603L2.59203 10.5695C2.57213 10.5847 2.55401 10.6021 2.53803 10.6215C2.52222 10.6451 2.50945 10.6706 2.50003 10.6975L1.59803 13.4255C1.57386 13.4983 1.57815 13.5776 1.61003 13.6475L2.30003 15.1175H1.88203C1.80247 15.1175 1.72616 15.1491 1.6699 15.2053C1.61364 15.2616 1.58203 15.3379 1.58203 15.4175C1.58203 15.497 1.61364 15.5733 1.6699 15.6296C1.72616 15.6859 1.80247 15.7175 1.88203 15.7175H19.5C19.5796 15.7175 19.6559 15.6859 19.7122 15.6296C19.7684 15.5733 19.8 15.497 19.8 15.4175C19.8 15.3379 19.7684 15.2616 19.7122 15.2053C19.6559 15.1491 19.5796 15.1175 19.5 15.1175ZM17.918 10.4215L18.65 11.6575L15.312 12.4255L13.7 10.9815C13.6404 10.9284 13.5621 10.9012 13.4824 10.9059C13.4026 10.9106 13.3281 10.9468 13.275 11.0065C13.222 11.0661 13.1948 11.1444 13.1995 11.2241C13.2042 11.3038 13.2404 11.3784 13.3 11.4315L14.938 12.8875V15.1175H12.342L11.942 14.1175L12.832 13.5655C12.8819 13.5344 12.9215 13.4895 12.946 13.4362C12.9706 13.3828 12.9789 13.3235 12.97 13.2655L12.618 10.9855L15.736 8.96546L17.918 10.4215ZM6.50003 15.1175L6.91603 12.8675L7.61203 11.8375L8.25403 13.3995L7.62803 15.1215L6.50003 15.1175ZM4.31803 11.1395L5.82803 12.4515H4.14203L3.31803 11.1395H4.31803ZM4.81003 10.7715L5.75003 9.07346L7.30003 11.2135L6.56403 12.3035L4.81003 10.7715ZM9.76603 10.1995L10.166 11.9195C10.1863 11.9945 10.2349 12.0587 10.3017 12.0986C10.3684 12.1385 10.448 12.151 10.5237 12.1333C10.5994 12.1157 10.6653 12.0694 10.7075 12.0041C10.7497 11.9388 10.765 11.8597 10.75 11.7835L10.392 10.2575L12.02 11.0395L12.344 13.1615L11.5 13.6795L8.79203 13.1255L8.04403 11.3255L9.76603 10.1995ZM8.76603 13.7335L11.348 14.2595L11.7 15.1175H8.26803L8.76603 13.7335ZM14.5 5.61346L15.446 7.81346V8.44346L12.27 10.4955L10.234 9.51146L9.81003 6.71146L11.126 5.36346L12.624 7.30746L11.1 8.42746C11.0681 8.45047 11.0411 8.47957 11.0205 8.51308C10.9999 8.54659 10.9861 8.58385 10.98 8.62271C10.9738 8.66157 10.9754 8.70126 10.9847 8.73949C10.994 8.77772 11.0108 8.81374 11.034 8.84546C11.062 8.88349 11.0984 8.9145 11.1404 8.93602C11.1824 8.95755 11.2288 8.96899 11.276 8.96946C11.3403 8.96917 11.4027 8.94812 11.454 8.90946L13.098 7.70946L13.918 7.96346C13.9471 7.97297 13.9775 7.9777 14.008 7.97746C14.0824 7.98169 14.1557 7.9581 14.2136 7.91128C14.2716 7.86447 14.31 7.79777 14.3215 7.72416C14.333 7.65056 14.3167 7.57532 14.2757 7.51309C14.2348 7.45085 14.1722 7.40607 14.1 7.38746L13.226 7.11546L11.7 5.12946L13.202 4.89346L14.5 5.61346ZM8.20003 6.91546H9.24203L9.64203 9.56746L7.74603 10.7995L6.12803 8.57146L8.20003 6.91546ZM2.85803 11.5355L3.72403 12.9115C3.7508 12.9546 3.78823 12.9902 3.83271 13.0147C3.87719 13.0392 3.92724 13.0519 3.97803 13.0515H6.26803L5.88603 15.1175H3.30003L3.90003 14.1535C3.9414 14.0853 3.95401 14.0035 3.93507 13.926C3.91612 13.8486 3.86719 13.7818 3.79903 13.7405C3.73087 13.6991 3.64907 13.6865 3.57161 13.7054C3.49416 13.7244 3.4274 13.7733 3.38603 13.8415L2.81403 14.7835L2.21403 13.4995L2.85803 11.5355ZM15.53 15.1175V12.9995L18.7 12.2615L17.912 15.1175H15.53Z" fill="black"/>
<path d="M19.5 15.1175H18.536L19.408 11.9355C19.4071 11.9315 19.4071 11.9274 19.408 11.9235C19.409 11.9128 19.409 11.9021 19.408 11.8915C19.409 11.8822 19.409 11.8728 19.408 11.8635V11.8335C19.408 11.8235 19.408 11.8135 19.408 11.8035C19.409 11.7988 19.409 11.7941 19.408 11.7895V11.7735C19.4089 11.7648 19.4089 11.7561 19.408 11.7475C19.408 11.7355 19.408 11.7255 19.394 11.7155V11.7035L18.4 10.0575C18.3747 10.0175 18.3404 9.98401 18.3 9.95946L16.038 8.44546V7.75146C16.038 7.71092 16.0298 7.6708 16.014 7.63346L15.002 5.28346C14.9762 5.22213 14.9304 5.17137 14.872 5.13946L13.402 4.31946C13.3411 4.28601 13.2706 4.27404 13.202 4.28546L11.1 4.61546H11.09C11.062 4.61922 11.0349 4.62803 11.01 4.64146C10.9959 4.64796 10.9824 4.65601 10.97 4.66546C10.9622 4.67228 10.9549 4.67963 10.948 4.68746L9.37603 6.29946H8.08803C8.0197 6.29956 7.95343 6.32282 7.90003 6.36546L5.53003 8.26546C5.50307 8.28893 5.48011 8.31662 5.46203 8.34746L4.26203 10.5155H2.76603L2.69003 10.5275H2.67803C2.6561 10.5346 2.63524 10.5447 2.61603 10.5575H2.60603L2.59203 10.5695C2.57213 10.5847 2.55401 10.6021 2.53803 10.6215C2.52222 10.6451 2.50945 10.6706 2.50003 10.6975L1.59803 13.4255C1.57386 13.4983 1.57815 13.5776 1.61003 13.6475L2.30003 15.1175H1.88203C1.80247 15.1175 1.72616 15.1491 1.6699 15.2053C1.61364 15.2616 1.58203 15.3379 1.58203 15.4175C1.58203 15.497 1.61364 15.5733 1.6699 15.6296C1.72616 15.6859 1.80247 15.7175 1.88203 15.7175H19.5C19.5796 15.7175 19.6559 15.6859 19.7122 15.6296C19.7684 15.5733 19.8 15.497 19.8 15.4175C19.8 15.3379 19.7684 15.2616 19.7122 15.2053C19.6559 15.1491 19.5796 15.1175 19.5 15.1175ZM17.918 10.4215L18.65 11.6575L15.312 12.4255L13.7 10.9815C13.6404 10.9284 13.5621 10.9012 13.4824 10.9059C13.4026 10.9106 13.3281 10.9468 13.275 11.0065C13.222 11.0661 13.1948 11.1444 13.1995 11.2241C13.2042 11.3038 13.2404 11.3784 13.3 11.4315L14.938 12.8875V15.1175H12.342L11.942 14.1175L12.832 13.5655C12.8819 13.5344 12.9215 13.4895 12.946 13.4362C12.9706 13.3828 12.9789 13.3235 12.97 13.2655L12.618 10.9855L15.736 8.96546L17.918 10.4215ZM6.50003 15.1175L6.91603 12.8675L7.61203 11.8375L8.25403 13.3995L7.62803 15.1215L6.50003 15.1175ZM4.31803 11.1395L5.82803 12.4515H4.14203L3.31803 11.1395H4.31803ZM4.81003 10.7715L5.75003 9.07346L7.30003 11.2135L6.56403 12.3035L4.81003 10.7715ZM9.76603 10.1995L10.166 11.9195C10.1863 11.9945 10.2349 12.0587 10.3017 12.0986C10.3684 12.1385 10.448 12.151 10.5237 12.1333C10.5994 12.1157 10.6653 12.0694 10.7075 12.0041C10.7497 11.9388 10.765 11.8597 10.75 11.7835L10.392 10.2575L12.02 11.0395L12.344 13.1615L11.5 13.6795L8.79203 13.1255L8.04403 11.3255L9.76603 10.1995ZM8.76603 13.7335L11.348 14.2595L11.7 15.1175H8.26803L8.76603 13.7335ZM14.5 5.61346L15.446 7.81346V8.44346L12.27 10.4955L10.234 9.51146L9.81003 6.71146L11.126 5.36346L12.624 7.30746L11.1 8.42746C11.0681 8.45047 11.0411 8.47957 11.0205 8.51308C10.9999 8.54659 10.9861 8.58385 10.98 8.62271C10.9738 8.66157 10.9754 8.70126 10.9847 8.73949C10.994 8.77772 11.0108 8.81374 11.034 8.84546C11.062 8.88349 11.0984 8.9145 11.1404 8.93602C11.1824 8.95755 11.2288 8.96899 11.276 8.96946C11.3403 8.96917 11.4027 8.94812 11.454 8.90946L13.098 7.70946L13.918 7.96346C13.9471 7.97297 13.9775 7.9777 14.008 7.97746C14.0824 7.98169 14.1557 7.9581 14.2136 7.91128C14.2716 7.86447 14.31 7.79777 14.3215 7.72416C14.333 7.65056 14.3167 7.57532 14.2757 7.51309C14.2348 7.45085 14.1722 7.40607 14.1 7.38746L13.226 7.11546L11.7 5.12946L13.202 4.89346L14.5 5.61346ZM8.20003 6.91546H9.24203L9.64203 9.56746L7.74603 10.7995L6.12803 8.57146L8.20003 6.91546ZM2.85803 11.5355L3.72403 12.9115C3.7508 12.9546 3.78823 12.9902 3.83271 13.0147C3.87719 13.0392 3.92724 13.0519 3.97803 13.0515H6.26803L5.88603 15.1175H3.30003L3.90003 14.1535C3.9414 14.0853 3.95401 14.0035 3.93507 13.926C3.91612 13.8486 3.86719 13.7818 3.79903 13.7405C3.73087 13.6991 3.64907 13.6865 3.57161 13.7054C3.49416 13.7244 3.4274 13.7733 3.38603 13.8415L2.81403 14.7835L2.21403 13.4995L2.85803 11.5355ZM15.53 15.1175V12.9995L18.7 12.2615L17.912 15.1175H15.53Z" stroke="black" stroke-width="0.6" mask="url(#path-1-outside-1_1741_10279)"/>
</g>
<defs>
<clipPath id="clip0_1741_10279">
<rect width="20" height="20" fill="white" transform="translate(0.5)"/>
</clipPath>
</defs>
</svg>
