<svg width="20" height="22" viewBox="0 0 20 22" fill="none" xmlns="http://www.w3.org/2000/svg">
<path d="M3.71053 9.78942L9.5 0.473633L15.2895 9.78942H3.71053ZM15.4211 21.5263C14.1228 21.5263 13.0351 21.0877 12.1579 20.2105C11.2807 19.3333 10.8421 18.2456 10.8421 16.9473C10.8421 15.6491 11.2807 14.5614 12.1579 13.6842C13.0351 12.807 14.1228 12.3684 15.4211 12.3684C16.7193 12.3684 17.807 12.807 18.6842 13.6842C19.5614 14.5614 20 15.6491 20 16.9473C20 18.2456 19.5614 19.3333 18.6842 20.2105C17.807 21.0877 16.7193 21.5263 15.4211 21.5263ZM0 20.8684V12.8684H8V20.8684H0ZM15.4211 19.9473C16.2632 19.9473 16.9737 19.6578 17.5526 19.0789C18.1316 18.4999 18.4211 17.7894 18.4211 16.9473C18.4211 16.1052 18.1316 15.3947 17.5526 14.8157C16.9737 14.2368 16.2632 13.9473 15.4211 13.9473C14.5789 13.9473 13.8684 14.2368 13.2895 14.8157C12.7105 15.3947 12.4211 16.1052 12.4211 16.9473C12.4211 17.7894 12.7105 18.4999 13.2895 19.0789C13.8684 19.6578 14.5789 19.9473 15.4211 19.9473ZM1.57895 19.2894H6.42105V14.4473H1.57895V19.2894ZM6.55263 8.21048H12.4474L9.5 3.44732L6.55263 8.21048Z" fill="black"/>
</svg>
