<svg width="200" height="200" viewBox="0 0 200 200" fill="none" xmlns="http://www.w3.org/2000/svg">
<g clip-path="url(#clip0_636_15789)">
<mask id="path-1-outside-1_636_15789" maskUnits="userSpaceOnUse" x="-2" y="24.7539" width="203" height="151" fill="black">
<rect fill="white" x="-2" y="24.7539" width="203" height="151"/>
<path d="M6.05595 96.2719H9.80519V50.5615C6.82487 50.1848 4.51109 47.6394 4.51109 44.5587V31.8099C4.51109 28.4705 7.22769 25.7539 10.5671 25.7539H15.8025C17.4209 25.7539 18.7328 27.0659 18.7328 28.6842C18.7328 30.3025 17.4209 31.6145 15.8025 31.6145H10.5671C10.4592 31.6145 10.3717 31.702 10.3717 31.8099V44.5587C10.3717 44.6665 10.4592 44.754 10.5671 44.754H98.023C98.1308 44.754 98.2184 44.6665 98.2184 44.5587V31.8099C98.2184 31.702 98.1308 31.6145 98.023 31.6145H29.4773C27.859 31.6145 26.547 30.3025 26.547 28.6842C26.547 27.0659 27.859 25.7539 29.4773 25.7539H98.023C101.362 25.7539 104.079 28.4705 104.079 31.8099V44.5587C104.079 47.6394 101.765 50.1848 98.7849 50.5615V81.8712H188.468C190.086 81.8712 191.398 83.1832 191.398 84.8015C191.398 86.4198 190.086 87.7318 188.468 87.7318H181.455V100.031H193.944C197.283 100.031 200 102.747 200 106.086V116.261C200 119.263 197.801 121.756 194.93 122.229V141.439C194.93 144.093 193.846 146.681 191.958 148.535L168.763 171.387C166.886 173.231 164.402 174.247 161.771 174.247H152.296C150.678 174.247 149.366 172.935 149.366 171.316C149.366 169.698 150.678 168.386 152.296 168.386H161.771C162.857 168.386 163.881 167.967 164.653 167.209L187.848 144.357C188.624 143.594 189.069 142.531 189.069 141.439V122.317H10.93V143.733C10.93 144.114 11.05 144.476 11.2782 144.783L27.5808 166.731C28.3521 167.767 29.5836 168.386 30.8756 168.386H138.621C140.239 168.386 141.551 169.698 141.551 171.317C141.551 172.935 140.239 174.247 138.621 174.247H30.8756C27.7398 174.247 24.7505 172.745 22.8775 170.227L6.57481 148.279C5.60391 146.975 5.06943 145.36 5.06943 143.733V122.229C2.1985 121.756 -0.000396729 119.264 -0.000396729 116.261V102.328C-1.52588e-05 98.9885 2.71696 96.2719 6.05595 96.2719ZM92.9243 96.2719V50.615H78.0774V76.8901C78.0774 80.2295 75.3608 82.9461 72.0214 82.9461H15.6658V96.2719H92.9243ZM15.6658 77.0854H40.4249V50.615H15.6658V77.0854ZM46.2855 77.0854H72.0214C72.1293 77.0854 72.2168 76.9979 72.2168 76.8901V50.615H46.2855V77.0854ZM98.7849 96.2719H101.113C102.187 96.2719 103.228 96.493 104.209 96.9295H104.209L110.843 99.8789C111.068 99.9793 111.309 100.031 111.556 100.031H117.769V87.7318H98.7849V96.2719ZM161.138 100.031V87.7322H152.542V100.031H161.138ZM146.682 87.7322H138.086V100.031H146.682V87.7322ZM132.226 87.7322H123.63V100.031H132.226V87.7322ZM175.594 87.7322H166.999V100.031H175.594V87.7322ZM194.139 106.087C194.139 105.979 194.052 105.892 193.944 105.892H111.556C110.482 105.892 109.441 105.67 108.46 105.234L101.828 102.285C101.828 102.285 101.827 102.285 101.827 102.284C101.601 102.184 101.361 102.133 101.113 102.133H6.05595C5.94812 102.133 5.8606 102.22 5.8606 102.328V116.261C5.8606 116.369 5.94812 116.456 6.05595 116.456H193.944C194.052 116.456 194.139 116.369 194.139 116.261V106.087Z"/>
</mask>
<path d="M6.05595 96.2719H9.80519V50.5615C6.82487 50.1848 4.51109 47.6394 4.51109 44.5587V31.8099C4.51109 28.4705 7.22769 25.7539 10.5671 25.7539H15.8025C17.4209 25.7539 18.7328 27.0659 18.7328 28.6842C18.7328 30.3025 17.4209 31.6145 15.8025 31.6145H10.5671C10.4592 31.6145 10.3717 31.702 10.3717 31.8099V44.5587C10.3717 44.6665 10.4592 44.754 10.5671 44.754H98.023C98.1308 44.754 98.2184 44.6665 98.2184 44.5587V31.8099C98.2184 31.702 98.1308 31.6145 98.023 31.6145H29.4773C27.859 31.6145 26.547 30.3025 26.547 28.6842C26.547 27.0659 27.859 25.7539 29.4773 25.7539H98.023C101.362 25.7539 104.079 28.4705 104.079 31.8099V44.5587C104.079 47.6394 101.765 50.1848 98.7849 50.5615V81.8712H188.468C190.086 81.8712 191.398 83.1832 191.398 84.8015C191.398 86.4198 190.086 87.7318 188.468 87.7318H181.455V100.031H193.944C197.283 100.031 200 102.747 200 106.086V116.261C200 119.263 197.801 121.756 194.93 122.229V141.439C194.93 144.093 193.846 146.681 191.958 148.535L168.763 171.387C166.886 173.231 164.402 174.247 161.771 174.247H152.296C150.678 174.247 149.366 172.935 149.366 171.316C149.366 169.698 150.678 168.386 152.296 168.386H161.771C162.857 168.386 163.881 167.967 164.653 167.209L187.848 144.357C188.624 143.594 189.069 142.531 189.069 141.439V122.317H10.93V143.733C10.93 144.114 11.05 144.476 11.2782 144.783L27.5808 166.731C28.3521 167.767 29.5836 168.386 30.8756 168.386H138.621C140.239 168.386 141.551 169.698 141.551 171.317C141.551 172.935 140.239 174.247 138.621 174.247H30.8756C27.7398 174.247 24.7505 172.745 22.8775 170.227L6.57481 148.279C5.60391 146.975 5.06943 145.36 5.06943 143.733V122.229C2.1985 121.756 -0.000396729 119.264 -0.000396729 116.261V102.328C-1.52588e-05 98.9885 2.71696 96.2719 6.05595 96.2719ZM92.9243 96.2719V50.615H78.0774V76.8901C78.0774 80.2295 75.3608 82.9461 72.0214 82.9461H15.6658V96.2719H92.9243ZM15.6658 77.0854H40.4249V50.615H15.6658V77.0854ZM46.2855 77.0854H72.0214C72.1293 77.0854 72.2168 76.9979 72.2168 76.8901V50.615H46.2855V77.0854ZM98.7849 96.2719H101.113C102.187 96.2719 103.228 96.493 104.209 96.9295H104.209L110.843 99.8789C111.068 99.9793 111.309 100.031 111.556 100.031H117.769V87.7318H98.7849V96.2719ZM161.138 100.031V87.7322H152.542V100.031H161.138ZM146.682 87.7322H138.086V100.031H146.682V87.7322ZM132.226 87.7322H123.63V100.031H132.226V87.7322ZM175.594 87.7322H166.999V100.031H175.594V87.7322ZM194.139 106.087C194.139 105.979 194.052 105.892 193.944 105.892H111.556C110.482 105.892 109.441 105.67 108.46 105.234L101.828 102.285C101.828 102.285 101.827 102.285 101.827 102.284C101.601 102.184 101.361 102.133 101.113 102.133H6.05595C5.94812 102.133 5.8606 102.22 5.8606 102.328V116.261C5.8606 116.369 5.94812 116.456 6.05595 116.456H193.944C194.052 116.456 194.139 116.369 194.139 116.261V106.087Z" fill="#17A0B5"/>
<path d="M6.05595 96.2719H9.80519V50.5615C6.82487 50.1848 4.51109 47.6394 4.51109 44.5587V31.8099C4.51109 28.4705 7.22769 25.7539 10.5671 25.7539H15.8025C17.4209 25.7539 18.7328 27.0659 18.7328 28.6842C18.7328 30.3025 17.4209 31.6145 15.8025 31.6145H10.5671C10.4592 31.6145 10.3717 31.702 10.3717 31.8099V44.5587C10.3717 44.6665 10.4592 44.754 10.5671 44.754H98.023C98.1308 44.754 98.2184 44.6665 98.2184 44.5587V31.8099C98.2184 31.702 98.1308 31.6145 98.023 31.6145H29.4773C27.859 31.6145 26.547 30.3025 26.547 28.6842C26.547 27.0659 27.859 25.7539 29.4773 25.7539H98.023C101.362 25.7539 104.079 28.4705 104.079 31.8099V44.5587C104.079 47.6394 101.765 50.1848 98.7849 50.5615V81.8712H188.468C190.086 81.8712 191.398 83.1832 191.398 84.8015C191.398 86.4198 190.086 87.7318 188.468 87.7318H181.455V100.031H193.944C197.283 100.031 200 102.747 200 106.086V116.261C200 119.263 197.801 121.756 194.93 122.229V141.439C194.93 144.093 193.846 146.681 191.958 148.535L168.763 171.387C166.886 173.231 164.402 174.247 161.771 174.247H152.296C150.678 174.247 149.366 172.935 149.366 171.316C149.366 169.698 150.678 168.386 152.296 168.386H161.771C162.857 168.386 163.881 167.967 164.653 167.209L187.848 144.357C188.624 143.594 189.069 142.531 189.069 141.439V122.317H10.93V143.733C10.93 144.114 11.05 144.476 11.2782 144.783L27.5808 166.731C28.3521 167.767 29.5836 168.386 30.8756 168.386H138.621C140.239 168.386 141.551 169.698 141.551 171.317C141.551 172.935 140.239 174.247 138.621 174.247H30.8756C27.7398 174.247 24.7505 172.745 22.8775 170.227L6.57481 148.279C5.60391 146.975 5.06943 145.36 5.06943 143.733V122.229C2.1985 121.756 -0.000396729 119.264 -0.000396729 116.261V102.328C-1.52588e-05 98.9885 2.71696 96.2719 6.05595 96.2719ZM92.9243 96.2719V50.615H78.0774V76.8901C78.0774 80.2295 75.3608 82.9461 72.0214 82.9461H15.6658V96.2719H92.9243ZM15.6658 77.0854H40.4249V50.615H15.6658V77.0854ZM46.2855 77.0854H72.0214C72.1293 77.0854 72.2168 76.9979 72.2168 76.8901V50.615H46.2855V77.0854ZM98.7849 96.2719H101.113C102.187 96.2719 103.228 96.493 104.209 96.9295H104.209L110.843 99.8789C111.068 99.9793 111.309 100.031 111.556 100.031H117.769V87.7318H98.7849V96.2719ZM161.138 100.031V87.7322H152.542V100.031H161.138ZM146.682 87.7322H138.086V100.031H146.682V87.7322ZM132.226 87.7322H123.63V100.031H132.226V87.7322ZM175.594 87.7322H166.999V100.031H175.594V87.7322ZM194.139 106.087C194.139 105.979 194.052 105.892 193.944 105.892H111.556C110.482 105.892 109.441 105.67 108.46 105.234L101.828 102.285C101.828 102.285 101.827 102.285 101.827 102.284C101.601 102.184 101.361 102.133 101.113 102.133H6.05595C5.94812 102.133 5.8606 102.22 5.8606 102.328V116.261C5.8606 116.369 5.94812 116.456 6.05595 116.456H193.944C194.052 116.456 194.139 116.369 194.139 116.261V106.087Z" stroke="#17A0B5" stroke-width="2" mask="url(#path-1-outside-1_636_15789)"/>
<path d="M31.1769 143.539C31.1769 135.263 37.9095 128.53 46.1851 128.53C54.4607 128.53 61.1934 135.263 61.1934 143.539C61.1934 151.814 54.4607 158.547 46.1851 158.547C37.9095 158.547 31.1769 151.814 31.1769 143.539ZM55.3327 143.539C55.3327 138.494 51.2292 134.391 46.1851 134.391C41.1411 134.391 37.0375 138.494 37.0375 143.539C37.0375 148.583 41.1411 152.686 46.1851 152.686C51.2292 152.686 55.3327 148.583 55.3327 143.539Z" fill="#17A0B5"/>
</g>
<defs>
<clipPath id="clip0_636_15789">
<rect width="200" height="200" fill="white" transform="matrix(-1 0 0 1 200 0)"/>
</clipPath>
</defs>
</svg>
