<svg width="72" height="60" viewBox="0 0 72 60" fill="none" xmlns="http://www.w3.org/2000/svg">
<path d="M42.9985 25.543L42.9207 25.3733L42.7508 25.2961L37.0422 22.7027L42.7508 20.1093L42.9207 20.0321L42.9985 19.8624L45.6061 14.173L48.2136 19.8624L48.2914 20.0321L48.4614 20.1093L54.1699 22.7027L48.4614 25.2961L48.2914 25.3733L48.2136 25.543L45.6061 31.2324L42.9985 25.543ZM12.628 31.7826L12.4581 31.8598L12.3803 32.0295L9.77273 37.7189L7.16514 32.0295L7.08737 31.8598L6.91742 31.7826L1.20884 29.1892L6.91742 26.5958L7.08737 26.5186L7.16514 26.3489L9.77273 20.6595L12.3803 26.3489L12.4581 26.5186L12.628 26.5958L18.3366 29.1892L12.628 31.7826ZM27.7773 14.4306L27.6053 14.508L27.5273 14.6797L24.4318 21.4938L21.3363 14.6797L21.2583 14.508L21.0864 14.4306L14.2481 11.3514L21.0864 8.27213L21.2583 8.1947L21.3363 8.02302L24.4318 1.20889L27.5273 8.02302L27.6053 8.1947L27.7773 8.27213L34.6156 11.3514L27.7773 14.4306ZM7.22358 55.1349L30.9472 31.4842L43.6245 44.1057L43.9985 44.478L44.3501 44.0845L67.0947 18.6294L70.9783 22.4959L43.956 52.7543L31.2997 40.1538L30.9467 39.8023L30.5939 40.1541L11.4012 59.2942L7.22358 55.1349Z" fill="#17A0B5" stroke="white"/>
</svg>
