<svg width="90" height="75" viewBox="0 0 90 75" fill="none" xmlns="http://www.w3.org/2000/svg">
<g filter="url(#filter0_i_3386_7602)">
<mask id="mask0_3386_7602" style="mask-type:alpha" maskUnits="userSpaceOnUse" x="9" y="3" width="53" height="67">
<path d="M61.8387 4.3319L10.4961 3.67285L9.65614 69.1101L60.9988 69.7691L61.8387 4.3319Z" fill="white"/>
<path fill-rule="evenodd" clip-rule="evenodd" d="M20.9712 6.94374L51.2823 7.33282C55.3578 7.38513 58.6194 10.7314 58.5671 14.807L58.5005 19.9926C58.494 20.502 58.9017 20.9203 59.4111 20.9268C59.9205 20.9334 60.3388 20.5257 60.3454 20.0162L60.4119 14.8307C60.4773 9.73623 56.4004 5.55335 51.306 5.48796L20.9948 5.09887C15.9004 5.03348 11.7175 9.11034 11.6521 14.2048L11.0821 58.6106C11.0167 63.705 15.0936 67.8879 20.188 67.9533L50.4992 68.3424C55.5936 68.4078 59.7765 64.3309 59.8419 59.2365L59.9088 54.0249C59.9154 53.5154 59.5076 53.0972 58.9982 53.0906C58.4889 53.0841 58.0705 53.4917 58.064 54.0012L57.9971 59.2128C57.9448 63.2883 54.5984 66.5498 50.5229 66.4975L20.2117 66.1084C16.1362 66.0561 12.8747 62.7097 12.927 58.6343L13.497 14.2285C13.5493 10.1529 16.8956 6.89142 20.9712 6.94374Z" fill="black"/>
</mask>
<g mask="url(#mask0_3386_7602)">
<path fill-rule="evenodd" clip-rule="evenodd" d="M20.9712 6.94373L51.2823 7.33281C55.3578 7.38512 58.6194 10.7314 58.5671 14.807L58.5005 19.9926C58.494 20.502 58.9017 20.9203 59.4111 20.9268C59.9205 20.9334 60.3388 20.5257 60.3454 20.0162L60.4119 14.8307C60.4773 9.73622 56.4004 5.55334 51.306 5.48795L20.9948 5.09887C15.9004 5.03348 11.7175 9.11034 11.6521 14.2048L11.0821 58.6106C11.0167 63.705 15.0936 67.8879 20.188 67.9533L50.4992 68.3424C55.5936 68.4078 59.7765 64.3309 59.8419 59.2365L59.9088 54.0249C59.9154 53.5154 59.5076 53.0972 58.9982 53.0907C58.4889 53.0841 58.0705 53.4917 58.0639 54.0012L57.997 59.2128C57.9447 63.2883 54.5984 66.5498 50.5229 66.4975L20.2117 66.1084C16.1361 66.0561 12.8747 62.7097 12.927 58.6343L13.497 14.2285C13.5493 10.1529 16.8956 6.89142 20.9712 6.94373Z" fill="#17A0B5"/>
<path d="M51.2993 6.04177L20.9882 5.65269L20.955 8.2355L51.2662 8.62458L51.2993 6.04177ZM59.8589 14.8239C59.9203 10.0351 56.088 6.10324 51.2993 6.04177L51.2662 8.62458C54.6284 8.66773 57.3192 11.4284 57.2761 14.7908L59.8589 14.8239ZM59.7923 20.0095L59.8589 14.8239L57.2761 14.7908L57.2095 19.9763L59.7923 20.0095ZM61.6372 20.0332L61.7037 14.8476L59.1209 14.8144L59.0544 20L61.6372 20.0332ZM61.7037 14.8476C61.7783 9.03994 57.1306 4.27146 51.323 4.19691L51.2898 6.77971C55.671 6.83595 59.1772 10.4332 59.1209 14.8144L61.7037 14.8476ZM51.323 4.19691L21.0118 3.80783L20.9787 6.39064L51.2898 6.77971L51.323 4.19691ZM21.0118 3.80783C15.2042 3.73328 10.4357 8.3809 10.3611 14.1886L12.9439 14.2217C13.0002 9.84048 16.5975 6.3344 20.9787 6.39064L21.0118 3.80783ZM10.3611 14.1886L9.79111 58.5944L12.3739 58.6275L12.9439 14.2217L10.3611 14.1886ZM9.79111 58.5944C9.71656 64.402 14.3642 69.1705 20.1719 69.2451L20.205 66.6622C15.8238 66.606 12.3177 63.0087 12.3739 58.6275L9.79111 58.5944ZM20.1719 69.2451L50.483 69.6341L50.5162 67.0513L20.205 66.6622L20.1719 69.2451ZM50.483 69.6341C56.2907 69.7087 61.0592 65.061 61.1337 59.2534L58.5509 59.2202C58.4947 63.6014 54.8974 67.1076 50.5162 67.0513L50.483 69.6341ZM61.1337 59.2534L61.2006 54.0419L58.6178 54.0087L58.5509 59.2202L61.1337 59.2534ZM59.2889 59.2297L59.3558 54.0182L56.773 53.985L56.7061 59.1966L59.2889 59.2297ZM50.5067 67.7893C55.2954 67.8507 59.2274 64.0184 59.2889 59.2297L56.7061 59.1966C56.6629 62.5588 53.9021 65.2496 50.5399 65.2065L50.5067 67.7893ZM20.1955 67.4002L50.5067 67.7893L50.5399 65.2065L20.2287 64.8174L20.1955 67.4002ZM11.636 58.618C11.5745 63.4068 15.4068 67.3387 20.1955 67.4002L20.2287 64.8174C16.8664 64.7742 14.1756 62.0135 14.2188 58.6512L11.636 58.618ZM12.206 14.2122L11.636 58.618L14.2188 58.6512L14.7888 14.2454L12.206 14.2122ZM20.9882 5.65269C16.1994 5.59122 12.2674 9.42346 12.206 14.2122L14.7888 14.2454C14.832 10.8831 17.5927 8.19234 20.955 8.2355L20.9882 5.65269ZM59.0152 51.7996C57.7926 51.7839 56.7887 52.7622 56.773 53.985L59.3558 54.0182C59.3532 54.2218 59.1859 54.385 58.9821 54.3824L59.0152 51.7996ZM59.3949 22.2186C60.6175 22.2343 61.6215 21.2558 61.6372 20.0332L59.0544 20C59.057 19.7963 59.2242 19.6332 59.4281 19.6358L59.3949 22.2186ZM61.2006 54.0419C61.2163 52.8191 60.2378 51.8153 59.0152 51.7996L58.9821 54.3824C58.7782 54.3798 58.6152 54.2124 58.6178 54.0087L61.2006 54.0419ZM57.2095 19.9763C57.1938 21.199 58.1723 22.2029 59.3949 22.2186L59.4281 19.6358C59.6319 19.6384 59.7949 19.8057 59.7923 20.0095L57.2095 19.9763Z" fill="#17A0B5"/>
</g>
</g>
<path d="M42.4907 31.4824L77.38 31.4824C78.2461 31.4824 78.9482 30.7803 78.9482 29.9142C78.9482 29.048 78.2461 28.3459 77.38 28.3459L42.4907 28.3459C41.6246 28.3459 40.9224 29.048 40.9224 29.9142C40.9224 30.7803 41.6246 31.4824 42.4907 31.4824Z" fill="#17A0B5" stroke="#17A0B5" stroke-width="1.49847"/>
<path d="M68.3819 23.7437L76.3223 31.0739C76.9587 31.6614 77.9509 31.6218 78.5384 30.9854C79.1259 30.349 79.0863 29.3568 78.4498 28.7693L70.5094 21.439C69.873 20.8515 68.8808 20.8912 68.2933 21.5276C67.7058 22.164 67.7455 23.1562 68.3819 23.7437Z" fill="#17A0B5" stroke="#17A0B5" stroke-width="1.49847"/>
<path d="M70.8453 38.6595L78.4868 31.0181C79.0992 30.4057 79.0992 29.4127 78.4868 28.8003C77.8743 28.1878 76.8814 28.1878 76.2689 28.8003L68.6275 36.4417C68.015 37.0541 68.015 38.0471 68.6275 38.6595C69.2399 39.272 70.2329 39.272 70.8453 38.6595Z" fill="#17A0B5" stroke="#17A0B5" stroke-width="1.49847"/>
<path d="M77.7681 41.9541H42.8788C42.0127 41.9541 41.3105 42.6562 41.3105 43.5224V43.5224C41.3105 44.3885 42.0127 45.0906 42.8788 45.0906H77.7681C78.6342 45.0906 79.3364 44.3885 79.3364 43.5224C79.3364 42.6562 78.6342 41.9541 77.7681 41.9541Z" fill="#17A0B5" stroke="#17A0B5" stroke-width="1.49847"/>
<path d="M51.8769 49.6929L43.9365 42.3626C43.3001 41.7751 42.3079 41.8147 41.7204 42.4511C41.1329 43.0875 41.1725 44.0797 41.8089 44.6672L49.7493 51.9975C50.3857 52.5851 51.3779 52.5454 51.9654 51.909C52.5529 51.2726 52.5133 50.2804 51.8769 49.6929Z" fill="#17A0B5" stroke="#17A0B5" stroke-width="1.49847"/>
<path d="M49.4125 34.778L41.771 42.4194C41.1586 43.0318 41.1586 44.0248 41.771 44.6372C42.3835 45.2497 43.3765 45.2497 43.9889 44.6372L51.6303 36.9958C52.2428 36.3834 52.2428 35.3904 51.6303 34.778C51.0179 34.1655 50.0249 34.1655 49.4125 34.778Z" fill="#17A0B5" stroke="#17A0B5" stroke-width="1.49847"/>
<defs>
<filter id="filter0_i_3386_7602" x="9.79004" y="3.80664" width="51.915" height="65.9138" filterUnits="userSpaceOnUse" color-interpolation-filters="sRGB">
<feFlood flood-opacity="0" result="BackgroundImageFix"/>
<feBlend mode="normal" in="SourceGraphic" in2="BackgroundImageFix" result="shape"/>
<feColorMatrix in="SourceAlpha" type="matrix" values="0 0 0 0 0 0 0 0 0 0 0 0 0 0 0 0 0 0 127 0" result="hardAlpha"/>
<feOffset dy="0.0856269"/>
<feGaussianBlur stdDeviation="0.0428135"/>
<feComposite in2="hardAlpha" operator="arithmetic" k2="-1" k3="1"/>
<feColorMatrix type="matrix" values="0 0 0 0 0 0 0 0 0 0 0 0 0 0 0 0 0 0 0.25 0"/>
<feBlend mode="normal" in2="shape" result="effect1_innerShadow_3386_7602"/>
</filter>
</defs>
</svg>
